<svg xmlns="http://www.w3.org/2000/svg" width="38" height="32" viewBox="0 0 38 32"><g><g><g><path fill="#0081b8" d="M32.285 10.16C31.95 4.515 27.252 0 21.587 0c-3.44 0-6.77 1.67-8.832 4.397-.048-.024-.098-.041-.146-.064a5.935 5.935 0 0 0-.383-.169 5.627 5.627 0 0 0-.609-.199c-.073-.019-.145-.039-.218-.055a6.11 6.11 0 0 0-.435-.079c-.064-.01-.127-.022-.192-.029a5.813 5.813 0 0 0-.639-.037c-3.143 0-5.7 2.533-5.7 5.647 0 .08.005.16.011.239C1.81 11.073 0 14.054 0 17.038c0 4.444 3.65 8.06 8.135 8.06H11.4a.63.63 0 0 0 .633-.627.63.63 0 0 0-.633-.628H8.135c-3.787 0-6.868-3.052-6.868-6.805 0-2.607 1.713-5.312 4.074-6.433l.359-.17v-.396c0-.075.005-.152.01-.229l.006-.116-.008-.122c-.004-.053-.008-.106-.008-.16 0-2.422 1.99-4.392 4.433-4.392a4.47 4.47 0 0 1 .729.064c.169.028.335.064.5.111.022.007.044.011.067.017.18.055.356.124.528.202.045.02.089.042.133.063a4.38 4.38 0 0 1 2.476 3.935.63.63 0 0 0 .634.627.63.63 0 0 0 .633-.627c0-1.728-.789-3.275-2.026-4.311 1.815-2.353 4.805-3.846 7.78-3.846 4.905 0 8.979 3.85 9.404 8.714-.647-.045-1.616-.068-2.586.078a.628.628 0 0 0-.53.714.631.631 0 0 0 .72.526c1.41-.211 2.88-.013 2.967-.001 2.948.555 5.171 3.246 5.171 6.265 0 3.47-2.849 6.292-6.35 6.292h-2.516a.63.63 0 0 0-.634.628.63.63 0 0 0 .634.627h2.515c4.2 0 7.618-3.386 7.618-7.547 0-3.444-2.424-6.533-5.715-7.39z"/></g><g><path fill="#0081b8" d="M24.252 25.91l-3.985 3.948V16.94a.63.63 0 0 0-.634-.627.63.63 0 0 0-.633.627v12.917l-3.986-3.949a.637.637 0 0 0-.895 0 .623.623 0 0 0 0 .888l5.066 5.019a.633.633 0 0 0 .897 0l5.066-5.02a.623.623 0 0 0 0-.887.637.637 0 0 0-.896 0z"/></g></g></g></svg>