<svg xmlns="http://www.w3.org/2000/svg" width="24" height="32" viewBox="0 0 24 32"><g><g><g><g><path fill="#0081b8" d="M19.23 5.085a.478.478 0 0 1-.376-.183l-2.94-3.736-3.699 2.971a.477.477 0 0 1-.675-.077.488.488 0 0 1 .077-.681L15.691.105a.477.477 0 0 1 .674.078l3.24 4.115a.488.488 0 0 1-.375.787z"/></g><g><path fill="#0081b8" d="M.48 16.64a.483.483 0 0 1-.48-.486c0-.267.215-.484.48-.484 8.288 0 15.03-6.811 15.03-15.185 0-.267.215-.485.48-.485s.48.218.48.485C16.47 9.393 9.297 16.64.48 16.64z"/></g></g><g><path fill="#0081b8" d="M.48 32a.483.483 0 0 1-.48-.485v-7.459c0-.267.215-.485.48-.485s.48.218.48.485v7.46A.483.483 0 0 1 .48 32z"/></g><g><path fill="#0081b8" d="M8.16 32a.483.483 0 0 1-.48-.485V19.35c0-.267.216-.484.48-.484.265 0 .48.217.48.484v12.165a.483.483 0 0 1-.48.485z"/></g><g><path fill="#0081b8" d="M15.84 32a.483.483 0 0 1-.48-.485V15.97c0-.267.215-.485.48-.485s.48.218.48.485v15.546a.483.483 0 0 1-.48.485z"/></g><g><path fill="#0081b8" d="M23.52 32a.483.483 0 0 1-.48-.485V10.994c0-.268.215-.485.48-.485s.48.217.48.485v20.521a.483.483 0 0 1-.48.485z"/></g></g></g></svg>