<svg xmlns="http://www.w3.org/2000/svg" width="56" height="40" viewBox="0 0 56 40"><g><g><g><g><path fill="#fff" d="M4.429 2.363l20.17 16.303c.915.739 2.176 1.067 3.4 1.006 1.222.061 2.483-.265 3.397-1.006L51.567 2.363C53.184 1.064 52.817 0 50.767 0H5.235c-2.053 0-2.419 1.064-.806 2.363z"/></g><g><path fill="#fff" d="M53.025 6.664L30.982 23.741c-.824.632-1.903.94-2.979.925-1.077.015-2.157-.295-2.981-.925L2.975 6.664C1.34 5.4 0 6.078 0 8.172v28.019C0 38.285 1.68 40 3.733 40h48.534C54.319 40 56 38.285 56 36.19V8.173c0-2.094-1.339-2.773-2.975-1.508z"/></g></g></g></g></svg>