<svg xmlns="http://www.w3.org/2000/svg" width="24" height="32" viewBox="0 0 24 32"><g><g><g><g><g><path fill="#0081b8" d="M22.666 12.667c0 9.916-1.264 13.125-10.666 17.919-9.402-4.794-10.667-8.003-10.667-17.92V5.14L12 1.374l10.666 3.765v7.528zm.89-8.629l-11.334-4a.666.666 0 0 0-.444 0l-11.333 4A.668.668 0 0 0 0 4.667v8C0 23.02 1.535 26.803 11.7 31.928a.668.668 0 0 0 .6 0C22.465 26.803 24 23.02 24 12.667v-8a.668.668 0 0 0-.445-.629z"/></g><g><path fill="#0081b8" d="M16 18.667h2.666a.666.666 0 1 0 0-1.334h-2v-4.666a.666.666 0 1 0-1.333 0V18c0 .369.298.667.667.667z"/></g><g><path fill="#0081b8" d="M6.667 13.334H8A.666.666 0 1 0 8 12H6.667c-1.103 0-2 .897-2 2s.897 2 2 2a.667.667 0 0 1 0 1.333H5.333a.666.666 0 1 0 0 1.334h1.334c1.102 0 2-.897 2-2s-.898-2-2-2a.667.667 0 0 1 0-1.333z"/></g><g><path fill="#0081b8" d="M10 14c0 1.103.897 2 2 2a.667.667 0 0 1 0 1.333h-1.333a.666.666 0 1 0 0 1.334H12c1.103 0 2-.897 2-2s-.897-2-2-2a.667.667 0 0 1 0-1.333h1.333a.666.666 0 1 0 0-1.334H12c-1.103 0-2 .897-2 2z"/></g></g></g></g></g></svg>