<svg xmlns="http://www.w3.org/2000/svg" width="35" height="32" viewBox="0 0 35 32"><g><g><g><g><g><path fill="#0081b8" d="M23.54 10.22c-.064.067-.127.1-.19.1h-4.817a.328.328 0 0 1-.19-.067c-.063-.067-.063-.134-.063-.2 0-.101.031-.202.063-.235.064-.067.127-.1.19-.1h4.817c.063 0 .158.033.19.1.032.033.063.1.063.2a.373.373 0 0 1-.063.202zm.729-1.072l-.032-.034a1.139 1.139 0 0 0-.856-.369h-4.848c-.317 0-.633.134-.824.369a1.252 1.252 0 0 0-.348.871c0 .369.127.704.348.905.222.234.507.369.856.369h4.816c.317 0 .634-.135.856-.369.222-.235.349-.536.349-.871 0-.335-.127-.637-.317-.871z"/></g></g></g><g><g><g><path fill="#0081b8" d="M33.014 27.476a.907.907 0 0 1-.697.302h-2.155v-.1c0-.101-.031-.202-.063-.302 0-.034-.032-.067-.032-.134-.031-.1-.031-.168-.063-.268 0-.034-.032-.067-.032-.134-.031-.1-.063-.168-.095-.268-.031-.034-.031-.067-.063-.1-.032-.068-.095-.168-.127-.235 0-.034-.032-.034-.032-.067 0-.034-.031-.067-.063-.067-.032-.034-.063-.067-.063-.101a.584.584 0 0 0-.127-.168l-.095-.1s0-.034-.032-.034h3.01c.286 0 .507.1.698.302.19.201.285.436.285.737a.918.918 0 0 1-.254.737zm-4.531 2.748c-.475.503-1.172.838-1.901.838a2.61 2.61 0 0 1-1.901-.838 2.98 2.98 0 0 1-.793-2.01c0-.135 0-.235.032-.37v-.1c0-.1.032-.167.063-.268 0-.033 0-.067.032-.1l.095-.302c0-.033.032-.067.032-.1l.095-.201c.032-.034.032-.067.063-.1.032-.068.095-.135.127-.202.032-.033.032-.067.063-.1l.19-.201.096-.101c.063-.033.095-.1.158-.134.032-.034.063-.034.095-.067.095-.067.159-.1.254-.168.031-.033.095-.033.126-.067.032-.033.095-.033.127-.067.032-.033.095-.033.127-.033.063-.034.127-.034.158-.067.032 0 .064-.034.127-.034s.127-.033.19-.033h.095c.095 0 .19-.034.285-.034.095 0 .19 0 .286.034h.095c.063 0 .126.033.19.033.031 0 .095.034.127.034.063 0 .095.033.158.033.032 0 .095.034.127.067.031.034.095.034.126.067.064.034.096.034.159.067.095.067.19.101.253.168.032.033.064.033.064.067.063.067.127.1.19.168.032.033.063.033.063.067l.222.234c.063.1.127.168.19.268.032.034.032.067.064.1l.095.202c0 .033.031.067.031.1l.095.302c0 .033.032.067.032.1.032.1.032.168.063.268v.1c0 .135.032.235.032.37.095.77-.19 1.474-.697 2.01zm-4.658-4.423c-.032-.034-.063 0-.095.067a.46.46 0 0 0-.095.134c-.032.067-.063.1-.095.168 0 .033-.032.033-.032.067 0 .033-.032.033-.032.067-.031.067-.095.167-.126.234-.032.034-.032.067-.064.1-.031.068-.063.168-.095.269 0 .033-.031.067-.031.134-.032.1-.064.167-.064.268 0 .033-.031.067-.031.134-.032.1-.032.2-.064.301v.1h-7.32v-.1c0-.1-.031-.2-.063-.301 0-.034-.032-.067-.032-.134-.031-.1-.031-.168-.063-.268 0-.034-.032-.067-.032-.134-.031-.1-.063-.168-.095-.268-.031-.034-.031-.067-.063-.1-.032-.101-.095-.168-.127-.235 0-.034-.031-.034-.031-.067 0-.034-.032-.034-.064-.067-.032-.034-.063-.067-.063-.101a.584.584 0 0 0-.127-.168l-.095-.1s0-.034-.032-.034h9.031v.034zm-9.823 4.423c-.475.503-1.172.838-1.901.838a2.61 2.61 0 0 1-1.901-.838 2.98 2.98 0 0 1-.792-2.01c0-.135 0-.235.031-.37v-.1c0-.1.032-.167.064-.268 0-.033 0-.067.031-.1l.095-.302c0-.033.032-.067.032-.1l.095-.201c.032-.034.032-.067.063-.1.032-.068.095-.135.127-.202.032-.033.032-.067.064-.1l.19-.201.095-.101c.063-.033.095-.1.158-.134.032-.034.064-.034.095-.067.095-.067.159-.1.254-.168.285-.167.602-.268.95-.301h.317c.095 0 .19 0 .285.033h.095c.064 0 .127.034.19.034.032 0 .096.033.127.033.064 0 .095.034.159.034.031 0 .095.033.126.067.032.033.096.033.127.067.064.033.095.033.159.067.095.067.19.1.253.167.032.034.064.034.064.068.063.067.126.1.19.167.031.034.063.034.063.067l.222.235v.033c.063.1.127.168.19.268.032.034.032.067.063.1l.095.202c0 .033.032.067.032.1l.095.302c0 .033.032.067.032.1.032.067.032.168.063.268v.1c0 .135.032.235.032.37.063.703-.254 1.407-.729 1.943zm-4.658-4.49c-.032.033-.063.1-.127.134a.46.46 0 0 0-.095.134c-.031.033-.063.1-.095.168 0 .033-.031.033-.031.067 0 .033-.032.033-.032.067-.032.067-.095.167-.127.234-.032.034-.032.067-.063.1-.032.068-.064.168-.095.269 0 .033-.032.067-.032.134-.032.1-.063.167-.063.268 0 .033-.032.067-.032.134-.032.1-.032.2-.063.301v.1h-1.68a1.771 1.771 0 0 1-.697-.368c-.19-.234-.285-.469-.285-.737V4.021h.982c.368 0 .706-.095.987-.284a.033.033 0 0 0-.005.016V25.23c0 .268.19.47.444.47h1.11v.033zM2.151 3.049a.956.956 0 0 1-.697-.301 1.015 1.015 0 0 1-.285-.738c0-.301.095-.536.285-.737a.907.907 0 0 1 .697-.301H6.81c.254 0 .507.1.697.301l.032.034c.158.2.253.435.253.703 0 .268-.095.536-.285.738a.907.907 0 0 1-.697.301zm27.726 4.758V24.73h-1.774s-.032 0-.032-.034c-.063-.033-.158-.067-.222-.1-.031 0-.095-.034-.127-.034-.063-.033-.126-.033-.221-.067-.032 0-.064-.033-.095-.033h-.032c-.095-.034-.19-.034-.285-.067-.032 0-.064 0-.127-.034-.127 0-.253-.033-.412-.033-.127 0-.285 0-.412.033-.032 0-.063 0-.127.034a.883.883 0 0 0-.285.067h-.031c-.032 0-.064.033-.096.033-.063.034-.126.034-.221.067-.032 0-.095.034-.127.034-.063.033-.159.067-.222.1 0 0-.032 0-.032.034H13.622s-.032 0-.032-.034c-.063-.033-.158-.067-.222-.1-.031 0-.095-.034-.126-.034-.064-.033-.127-.033-.222-.067-.032 0-.064-.033-.095-.033h-.032c-.095-.034-.19-.034-.285-.067-.032 0-.064 0-.127-.034-.127 0-.253-.033-.412-.033 0 .033-.032.033-.063.033V7.807zm-18.949-.972V3.887h20.027v2.948zm22.72 18.463c-.349-.368-.824-.603-1.33-.603h-1.522V7.807h.602c.254 0 .444-.2.444-.469v-3.92c0-.268-.19-.47-.444-.47H10.485c-.254 0-.444.202-.444.47v3.92c0 .268.19.47.444.47h.602v16.72c-.19.067-.349.134-.539.2H8.71V2.01c0-.536-.19-1.038-.538-1.373L8.14.603C7.791.234 7.316 0 6.81 0H2.15C1.644 0 1.17.234.821.603.47.972.25 1.474.25 2.01s.222 1.04.57 1.408c.349.368.824.603 1.331.603h2.757v22.718c0 .536.19 1.039.539 1.374l.031.034c.349.368.824.603 1.331.603H8.52c.127.837.476 1.575 1.014 2.144A3.467 3.467 0 0 0 12.101 32c1.014 0 1.901-.436 2.567-1.106a3.733 3.733 0 0 0 1.014-2.144h7.35c.128.837.476 1.575 1.015 2.144A3.467 3.467 0 0 0 26.613 32c1.014 0 1.902-.436 2.567-1.106a3.733 3.733 0 0 0 1.014-2.144h2.155c.507 0 .982-.235 1.33-.604.35-.368.571-.87.571-1.407a2.265 2.265 0 0 0-.602-1.44z"/></g></g></g><g><g><g><path fill="#0081b8" d="M12.766 28.917a.907.907 0 0 1-.697.302.956.956 0 0 1-.697-.302 1.015 1.015 0 0 1-.285-.737c0-.268.095-.536.285-.737a.907.907 0 0 1 .697-.302c.254 0 .507.1.697.302.19.2.285.435.285.737s-.095.536-.285.737zm.634-2.144c-.317-.369-.792-.57-1.33-.57-.508 0-.983.235-1.332.57a2.036 2.036 0 0 0-.538 1.407c0 .536.221 1.039.538 1.407.349.369.824.57 1.331.57s.982-.235 1.331-.57c.349-.368.539-.87.539-1.407 0-.536-.222-1.039-.539-1.407z"/></g></g></g><g><g><g><path fill="#0081b8" d="M27.279 28.917a.907.907 0 0 1-.697.302.956.956 0 0 1-.697-.302 1.014 1.014 0 0 1-.286-.737c0-.268.096-.536.286-.737a.907.907 0 0 1 .697-.302c.253 0 .507.1.697.302.19.2.285.435.285.737s-.127.536-.285.737zm.634-2.144a1.816 1.816 0 0 0-1.331-.57c-.507 0-.983.235-1.331.57a2.036 2.036 0 0 0-.539 1.407c0 .536.222 1.039.539 1.407.348.369.824.57 1.33.57.508 0 .983-.235 1.332-.57.348-.368.538-.87.538-1.407 0-.536-.221-1.039-.538-1.407z"/></g></g></g></g></g></svg>