<svg xmlns="http://www.w3.org/2000/svg" width="48" height="40" viewBox="0 0 48 40"><g><g><g><g><path fill="#fff" d="M19.395 6.092C8.683 6.092 0 12.91 0 21.324c0 4.124 2.092 7.874 5.487 10.616-.197 2.796-.856 6.217-2.766 8.06 3.802 0 7.686-2.43 10.142-4.332 2.041.573 4.237.887 6.532.887 10.711 0 19.394-6.815 19.394-15.231 0-8.414-8.683-15.232-19.394-15.232z"/></g><g><path fill="#fff" d="M45.174 22.807c1.633-2.227 2.566-4.816 2.566-7.576C47.74 6.817 39.058 0 28.346 0 23.632 0 19.31 1.322 15.95 3.515a26.098 26.098 0 0 1 4.935-.469c11.536 0 20.887 7.503 20.887 16.754 0 3.647-1.447 7.025-3.915 9.77 2.45 1.9 6.34 4.338 10.142 4.338-2.703-2.62-2.897-8.426-2.826-11.1z"/></g></g></g></g></svg>