<svg xmlns="http://www.w3.org/2000/svg" width="32" height="16" viewBox="0 0 32 16"><g><g><path fill="#0081b8" d="M24.684.027a6.608 6.608 0 0 0-.54-.02c-.058-.006-6.27-.467-8.757 7.805-2.173 7.232-7.209 6.911-7.475 6.89-.1 0-.2-.001-.3-.006-3.55-.16-6.332-3.1-6.332-6.696 0-3.696 2.975-6.703 6.632-6.703a6.596 6.596 0 0 1 5.582 3.083l1.077-.7C13.106 1.378 10.616.004 7.91.004 3.55.004 0 3.59 0 8c0 4.29 3.319 7.798 7.555 7.988.118.006.236.008.3.006.006 0 .081.006.212.006 1.117 0 6.32-.41 8.545-7.812 2.174-7.232 7.211-6.909 7.476-6.89.168 0 .336.006.5.018 3.439.26 6.132 3.195 6.132 6.684 0 3.696-2.975 6.703-6.632 6.703a6.595 6.595 0 0 1-5.582-3.082l-1.076.7c1.465 2.301 3.954 3.676 6.658 3.676C28.451 15.997 32 12.409 32 8 32 3.838 28.786.335 24.684.027z"/></g></g></svg>