<svg xmlns="http://www.w3.org/2000/svg" width="80" height="80" viewBox="0 0 80 80"><g><g><g><path fill="#0081b8" d="M75.313 71.38a3.937 3.937 0 0 1-3.932 3.933H29.79V71.39h17.74a2.344 2.344 0 0 0 2.344-2.343v-5.009V56.402h14.392a2.344 2.344 0 0 0 2.344-2.344V41.34h8.701zm-45.521-4.677v-5.354h5.354v2.677c0 .944.18 1.847.506 2.677zm-7.365 8.61a2.68 2.68 0 0 1-2.677-2.678V51.307h22.795a2.68 2.68 0 0 1 2.642 2.677v10.048a2.68 2.68 0 0 1-2.677 2.67 2.68 2.68 0 0 1-2.677-2.676v-5.02a2.344 2.344 0 0 0-2.343-2.345H27.448a2.344 2.344 0 0 0-2.344 2.344v13.637a2.68 2.68 0 0 1-2.677 2.67zM14.28 45.838a2.658 2.658 0 0 1-1.894.785 2.658 2.658 0 0 1-1.892-.785l-5.021-5.021a2.656 2.656 0 0 1-.784-1.892c0-.715.278-1.388.783-1.893l9.155-9.155c1.998-1.998 6.23-3.75 9.056-3.75h7.531c2.827 0 7.058 1.752 9.057 3.75l9.154 9.154c.506.506.785 1.178.785 1.894 0 .714-.28 1.386-.785 1.892l-5.02 5.021a2.664 2.664 0 0 1-1.794.781H42.395a2.667 2.667 0 0 1-1.777-.78 2.659 2.659 0 0 1-.785-1.859v-.07c.01-.702.287-1.36.785-1.858l1.47-1.47a2.346 2.346 0 0 0 0-3.315l-2.941-2.94a2.344 2.344 0 0 0-4.001 1.657V46.62H19.75v-2.673-7.962a2.345 2.345 0 0 0-4.001-1.658l-2.941 2.941a2.344 2.344 0 0 0 0 3.315l1.47 1.47a2.66 2.66 0 0 1 .785 1.877v.032a2.66 2.66 0 0 1-.784 1.877zm13.17-41.151c4.066 0 7.375 3.308 7.375 7.376 0 4.066-3.309 7.376-7.376 7.376s-7.376-3.31-7.376-7.376c0-4.068 3.309-7.376 7.376-7.376zm50.207 31.964H64.267a2.344 2.344 0 0 0-2.344 2.344v12.718H49.515a7.375 7.375 0 0 0-1.614-2.743l4.838-4.838a7.314 7.314 0 0 0 2.157-5.208 7.314 7.314 0 0 0-2.157-5.207l-9.154-9.154c-1.781-1.781-4.546-3.323-7.36-4.238a12.017 12.017 0 0 0 3.287-8.262C39.512 5.412 34.1 0 27.448 0S15.385 5.412 15.385 12.064c0 3.195 1.25 6.102 3.286 8.263-2.813.914-5.579 2.456-7.36 4.237l-9.154 9.154A7.316 7.316 0 0 0 0 38.926c0 1.967.766 3.816 2.157 5.207l5.02 5.021a7.316 7.316 0 0 0 5.208 2.157 7.37 7.37 0 0 0 2.678-.5v21.824c0 4.061 3.303 7.365 7.364 7.365 1.18 0 2.294-.28 3.283-.775.429.475 1.048.775 1.738.775h43.933C76.133 80 80 76.133 80 71.38V38.996a2.344 2.344 0 0 0-2.344-2.344z"/></g></g></g></svg>