<svg xmlns="http://www.w3.org/2000/svg" width="80" height="80" viewBox="0 0 80 80"><g><g><g><g><g><path fill="#0081b8" d="M56.653 45.596l2.99 17.697c.1.592-.26.93-.42 1.047-.159.118-.587.362-1.11.082l-15.657-8.356a5.212 5.212 0 0 0-4.91 0l-15.657 8.356c-.524.28-.951.036-1.11-.082a1.05 1.05 0 0 1-.42-1.047l2.99-17.697a5.404 5.404 0 0 0-1.518-4.74L9.165 28.321a1.055 1.055 0 0 1-.267-1.098c.06-.19.266-.643.852-.729l17.504-2.582a5.281 5.281 0 0 0 3.972-2.93l7.829-16.101c.262-.539.749-.597.946-.597.197 0 .684.058.946.597l7.828 16.101a5.28 5.28 0 0 0 3.973 2.93l17.504 2.582c.586.086.79.539.852.73.06.19.157.678-.267 1.097L58.17 40.855a5.404 5.404 0 0 0-1.517 4.74zm17.13-14.206a5.379 5.379 0 0 0 1.335-5.49c-.625-1.953-2.257-3.35-4.26-3.645l-17.504-2.582c-.343-.05-.64-.27-.794-.586L44.73 2.986C43.836 1.144 42.023 0 40.001 0c-2.023 0-3.836 1.144-4.731 2.986L27.44 19.087c-.154.316-.45.535-.794.586L9.142 22.255C7.14 22.55 5.51 23.947 4.883 25.9a5.378 5.378 0 0 0 1.335 5.49l12.667 12.533c.248.246.362.6.303.948l-2.99 17.697a5.36 5.36 0 0 0 2.099 5.238 5.178 5.178 0 0 0 5.556.408L39.51 59.86c.307-.164.674-.164.982 0l15.656 8.355a5.214 5.214 0 0 0 2.46.621c1.09 0 2.172-.346 3.096-1.029a5.36 5.36 0 0 0 2.099-5.238l-2.99-17.697a1.082 1.082 0 0 1 .303-.948z"/></g></g></g><g><g><g><path fill="#0081b8" d="M64.654 2.985a2.09 2.09 0 0 0-2.948.474l-2.24 3.13a2.163 2.163 0 0 0 .467 2.992c.375.276.809.409 1.239.409.652 0 1.296-.307 1.709-.883l2.24-3.13a2.163 2.163 0 0 0-.467-2.992z"/></g></g></g><g><g><g><path fill="#0081b8" d="M20.525 6.576l-2.24-3.13a2.09 2.09 0 0 0-2.948-.474 2.163 2.163 0 0 0-.467 2.992l2.24 3.13a2.097 2.097 0 0 0 1.71.883c.43 0 .864-.133 1.238-.41a2.163 2.163 0 0 0 .467-2.991z"/></g></g></g><g><g><g><path fill="#0081b8" d="M7.743 48.062a2.104 2.104 0 0 0-2.66-1.375L1.46 47.883c-1.109.365-1.715 1.574-1.355 2.7a2.114 2.114 0 0 0 2.007 1.48c.216 0 .436-.034.652-.106l3.625-1.195c1.108-.366 1.715-1.574 1.355-2.7z"/></g></g></g><g><g><g><path fill="#0081b8" d="M40.001 71.847c-1.165 0-2.11.96-2.11 2.142v3.87C37.89 79.04 38.836 80 40 80s2.11-.959 2.11-2.142V73.99c0-1.183-.944-2.142-2.11-2.142z"/></g></g></g><g><g><g><path fill="#0081b8" d="M78.542 47.886l-3.625-1.196a2.104 2.104 0 0 0-2.66 1.376c-.36 1.125.247 2.333 1.356 2.699l3.624 1.196c.217.071.437.105.653.105.89 0 1.717-.576 2.006-1.481.36-1.125-.246-2.334-1.354-2.7z"/></g></g></g></g></g></svg>