<svg xmlns="http://www.w3.org/2000/svg" width="80" height="80" viewBox="0 0 80 80"><g><g><g><path fill="#0081b8" d="M74.157 46.903a3.905 3.905 0 0 1-2.78 1.152 3.91 3.91 0 0 1-2.782-1.152L33.093 11.4a3.903 3.903 0 0 1-1.152-2.78c0-1.05.41-2.038 1.152-2.78a3.907 3.907 0 0 1 2.78-1.152c1.051 0 2.039.408 2.782 1.151l35.502 35.503a3.937 3.937 0 0 1 0 5.561zm-17.042 12.9c.599.599.886 1.222.787 1.71-.098.49-.604.953-1.388 1.273l-8.181 3.342c-2.327.95-5.927.225-7.705-1.552l-1.944-1.944 15.094-6.165zM20.272 74.16a3.906 3.906 0 0 1-2.78 1.151 3.907 3.907 0 0 1-2.78-1.151l-8.877-8.875a3.937 3.937 0 0 1 0-5.562 3.907 3.907 0 0 1 2.781-1.152c1.05 0 2.038.41 2.78 1.153l8.876 8.875a3.907 3.907 0 0 1 1.152 2.78c0 1.051-.41 2.038-1.152 2.781zm33.192-22.63l-.024.01-19.777 8.078-.024.01-11.154 4.555-6.672-6.672 16.46-40.304 30.514 30.516zM41.97 2.525A8.562 8.562 0 0 0 35.874 0a8.564 8.564 0 0 0-6.095 2.524 8.563 8.563 0 0 0-2.525 6.095c0 1.753.52 3.424 1.486 4.84L11.957 54.555a8.602 8.602 0 0 0-3.34-.67A8.565 8.565 0 0 0 2.52 56.41c-3.36 3.361-3.361 8.83 0 12.19l8.876 8.877A8.564 8.564 0 0 0 17.492 80a8.563 8.563 0 0 0 6.095-2.524 8.567 8.567 0 0 0 2.525-6.095 8.603 8.603 0 0 0-.67-3.341l8.535-3.486 3.337 3.336c2.138 2.139 5.467 3.341 8.661 3.341 1.445 0 2.863-.246 4.13-.763l8.182-3.342c2.262-.924 3.797-2.632 4.21-4.686.414-2.054-.339-4.224-2.067-5.952l-1.944-1.944 8.05-3.288a8.56 8.56 0 0 0 4.84 1.486h.001a8.563 8.563 0 0 0 6.095-2.524c3.36-3.361 3.36-8.83 0-12.19z"/></g><g><path fill="#0081b8" d="M66.939 15.402c.6 0 1.2-.23 1.657-.687L79.309 4.001A2.344 2.344 0 1 0 75.995.687L65.281 11.4a2.345 2.345 0 0 0 1.658 4.002z"/></g><g><path fill="#0081b8" d="M56.288 8.3c.6 0 1.2-.228 1.657-.686l3.614-3.613A2.343 2.343 0 1 0 58.244.687L54.63 4.3a2.344 2.344 0 0 0 1.657 4z"/></g><g><path fill="#0081b8" d="M75.995 18.438l-3.613 3.613a2.344 2.344 0 1 0 3.314 3.315l3.613-3.614a2.344 2.344 0 1 0-3.314-3.314z"/></g></g></g></svg>