<svg xmlns="http://www.w3.org/2000/svg" width="80" height="80" viewBox="0 0 80 80"><g><g><g><path fill="#0081b8" d="M75.312 75.313H49.875V33.724a3.937 3.937 0 0 1 3.932-3.932H71.38a3.937 3.937 0 0 1 3.932 3.932zm-40.5-29.037a3.937 3.937 0 0 1 3.933-3.932h2.51a3.937 3.937 0 0 1 3.932 3.932v29.037H34.812zM19.75 58.83a3.937 3.937 0 0 1 3.932-3.933h2.51a3.937 3.937 0 0 1 3.932 3.933v16.484H19.75zM4.688 71.38a3.937 3.937 0 0 1 3.932-3.932h2.51a3.937 3.937 0 0 1 3.932 3.932v3.933H4.688zM61.172 4.688h10.826l-2.275 2.275a2.342 2.342 0 0 0 0 3.315l2.275 2.274H61.172zM71.38 25.104H61.172V17.24h16.487a2.344 2.344 0 0 0 1.584-4.072L74.695 8.62 79.314 4A2.344 2.344 0 0 0 77.657 0h-18.83a2.344 2.344 0 0 0-2.342 2.344v22.76h-2.678c-4.753 0-8.62 3.867-8.62 8.62v4.885a8.567 8.567 0 0 0-3.932-.953h-2.51c-4.753 0-8.62 3.867-8.62 8.62v4.886a8.571 8.571 0 0 0-3.933-.953h-2.51c-4.753 0-8.62 3.867-8.62 8.62v4.885a8.56 8.56 0 0 0-3.932-.953H8.62C3.867 62.76 0 66.627 0 71.38v6.275A2.344 2.344 0 0 0 2.344 80h75.312A2.344 2.344 0 0 0 80 77.656V33.724c0-4.753-3.867-8.62-8.62-8.62z"/></g></g></g></svg>