<svg xmlns="http://www.w3.org/2000/svg" width="80" height="80" viewBox="0 0 80 80"><g><g><g><path fill="#0081b8" d="M40 75.313C20.529 75.313 4.687 59.47 4.687 40 4.688 20.529 20.53 4.687 40 4.687 59.471 4.688 75.313 20.53 75.313 40c0 19.471-15.842 35.313-35.313 35.313zm28.284-63.597C60.73 4.16 50.684 0 40 0 29.316 0 19.27 4.16 11.716 11.716 4.16 19.27 0 29.316 0 40c0 10.684 4.16 20.73 11.716 28.284C19.27 75.84 29.316 80 40 80c10.684 0 20.73-4.16 28.284-11.716C75.84 60.73 80 50.684 80 40c0-10.684-4.16-20.73-11.716-28.284z"/></g><g><path fill="#0081b8" d="M40 61.505c-8.294 0-15.177-6.157-16.318-14.14h32.636c-1.141 7.983-8.024 14.14-16.318 14.14zm18.828-18.828H21.172a2.344 2.344 0 0 0-2.344 2.344c0 11.674 9.498 21.172 21.172 21.172 11.674 0 21.172-9.498 21.172-21.172a2.344 2.344 0 0 0-2.344-2.344z"/></g><g><path fill="#0081b8" d="M25.458 24.81a2.343 2.343 0 0 0 1.764-1.283l.226-.457.225.457a2.345 2.345 0 0 0 1.765 1.283l.505.073-.365.356a2.344 2.344 0 0 0-.674 2.074l.086.503-.451-.237a2.343 2.343 0 0 0-2.182 0l-.45.237.085-.503a2.344 2.344 0 0 0-.673-2.074l-.366-.356zm-4.975 6.893a2.344 2.344 0 0 0 3.4 2.471l3.565-1.873 3.564 1.873c.343.18.718.27 1.09.27h.007a2.344 2.344 0 0 0 2.282-2.867l-.659-3.841 2.884-2.812a2.344 2.344 0 0 0-1.3-3.997l-3.984-.58-1.782-3.61a2.343 2.343 0 0 0-4.203 0l-1.782 3.61-3.985.58a2.344 2.344 0 0 0-1.299 3.997l2.884 2.812z"/></g><g><path fill="#0081b8" d="M54.682 25.24a2.344 2.344 0 0 0-.674 2.073l.086.503-.451-.237a2.341 2.341 0 0 0-2.181 0l-.451.237.086-.502a2.345 2.345 0 0 0-.674-2.075l-.366-.356.505-.073a2.343 2.343 0 0 0 1.765-1.283l.225-.456.226.456a2.345 2.345 0 0 0 1.765 1.283l.504.073zm5.739-4.313l-3.985-.58-1.782-3.61a2.344 2.344 0 0 0-4.204 0l-1.781 3.61-3.985.58a2.344 2.344 0 0 0-1.299 3.998l2.883 2.81-.68 3.968a2.344 2.344 0 0 0 3.4 2.471l3.564-1.873 3.565 1.873c.343.18.717.27 1.09.27h.007a2.344 2.344 0 0 0 2.282-2.867l-.66-3.841 2.884-2.812a2.344 2.344 0 0 0-1.3-3.997z"/></g></g></g></svg>