<svg xmlns="http://www.w3.org/2000/svg" width="64" height="80" viewBox="0 0 64 80"><g><g><g><path fill="#0081b8" d="M33.948 49.301a2.312 2.312 0 0 0 1.74 1.282l4.356.642-3.152 3.118a2.366 2.366 0 0 0-.665 2.074l.745 4.403-3.896-2.08a2.283 2.283 0 0 0-2.15 0l-3.897 2.08.745-4.403a2.366 2.366 0 0 0-.665-2.074l-3.152-3.118 4.356-.642a2.31 2.31 0 0 0 1.74-1.282L32 45.296zm-4.02-10.339l-3.48 7.16-7.787 1.147a2.318 2.318 0 0 0-1.865 1.595 2.369 2.369 0 0 0 .584 2.403l5.634 5.572-1.33 7.869a2.36 2.36 0 0 0 .92 2.292 2.282 2.282 0 0 0 2.432.179L32 63.464l6.964 3.715c.338.18.707.27 1.075.27h.007c1.274-.003 2.306-1.051 2.306-2.345 0-.18-.02-.355-.058-.523l-1.308-7.742 5.634-5.572c.63-.623.856-1.554.584-2.403a2.32 2.32 0 0 0-1.864-1.595l-7.787-1.147-3.481-7.16A2.307 2.307 0 0 0 32 37.656c-.88 0-1.683.507-2.072 1.306z"/></g><g><path fill="#0081b8" d="M56.906 71.38c0 2.169-1.739 3.933-3.876 3.933H10.97c-2.137 0-3.876-1.764-3.876-3.933V29.791h49.812zM4.62 21.172c0-2.168 1.738-3.932 3.876-3.932H29.69v7.864H4.62zM21.94 8.62c0-2.169 1.738-3.933 3.875-3.933S29.69 6.451 29.69 8.62v3.933h-3.875c-2.137 0-3.876-1.764-3.876-3.933zm16.246-3.932c2.136 0 3.875 1.763 3.875 3.932s-1.739 3.933-3.875 3.933H34.31V8.62c0-2.169 1.738-3.932 3.876-3.932zM59.38 25.104H34.31V17.24h21.194c2.138 0 3.876 1.764 3.876 3.932z"/></g></g></g></svg>