<svg xmlns="http://www.w3.org/2000/svg" width="40" height="40" viewBox="0 0 40 40"><g><g><g><path fill="#0081b8" d="M1.792 11.3c0-.3.243-.544.543-.544h34.5c.3 0 .544.243.544.543v1.646c0 .3-.243.544-.543.544h-34.5a.544.544 0 0 1-.544-.544zM19.586 1.15l16.191 8.511H3.394zM36.32 16.892c0 .24-.195.435-.435.435H30.49a.435.435 0 0 1-.435-.435v-.406h6.27zM31.5 32.384v-13.98h3.375v13.97zm4.821 1.523v.395h-6.27v-.395c0-.24.194-.435.434-.435h5.412a.435.435 0 0 1 .424.424zm1.058 5.027H1.792V37.87c0-.31.251-.562.562-.562h34.463c.306 0 .556.245.562.55zM2.85 33.907c0-.24.195-.435.435-.435h5.4c.241 0 .436.194.436.435v.395h-6.27zm4.821-15.492v13.959H4.3v-13.97zm-4.82-1.523v-.008-.398h6.27v.396c0 .24-.195.434-.435.434H3.274a.435.435 0 0 1-.424-.43zM9.12 35.38v.83h-6.27v-.83zm13.165-1.918c.24 0 .435.195.435.435v.395h-6.27v-.395c0-.24.194-.435.434-.435zm-1.011-15.057v13.97H17.9v-13.97zm-4.39-1.088a.435.435 0 0 1-.435-.434v-.396h6.27v.396c0 .24-.194.434-.434.434zm5.843 18.063v.83H16.45v-.83zm13.6 0v.83H30.05v-.83zm-6.27-19.98v-.837h6.27v.83zm.362 2.998V32.38a1.523 1.523 0 0 0-1.45 1.515v2.312h-5.162v-2.312a1.523 1.523 0 0 0-1.45-1.515V18.393a1.522 1.522 0 0 0 1.45-1.515v-2.316h5.155v2.312c0 .812.639 1.48 1.45 1.519zm-13.963-2.998v-.837h6.271v.83zm.363 2.998V32.38a1.523 1.523 0 0 0-1.45 1.515v2.312h-5.162v-2.312a1.523 1.523 0 0 0-1.45-1.515V18.393a1.522 1.522 0 0 0 1.45-1.515v-2.316h5.155v2.312c0 .812.639 1.48 1.45 1.519zM2.858 15.399v-.837h6.27v.83zm-2.121-4.35c-.015.08-.023.16-.025.24v1.645a1.631 1.631 0 0 0 1.058 1.523v2.42c.003.811.64 1.478 1.45 1.516v13.988a1.523 1.523 0 0 0-1.45 1.515v2.414a1.65 1.65 0 0 0-1.058 1.537v1.61c0 .3.243.543.543.543h36.668c.3 0 .544-.243.544-.544v-1.61a1.65 1.65 0 0 0-1.059-1.536v-2.428a1.522 1.522 0 0 0-1.45-1.516V18.393a1.522 1.522 0 0 0 1.45-1.515v-2.421a1.631 1.631 0 0 0 1.059-1.523V11.3c-.003-.08-.011-.16-.026-.239a.541.541 0 0 0 .44-.99L19.838.064a.544.544 0 0 0-.507 0L.292 10.06a.544.544 0 0 0 .445.99z"/></g></g></g></svg>