<svg xmlns="http://www.w3.org/2000/svg" width="90" height="80" viewBox="0 0 90 80"><g><g><g><g><path fill="#0b65a7" d="M86.564 11.726L31.443.094c-2.332-.492-4.644 1.008-5.137 3.334l-1.047 6.71 63.6 13.421 1.047-6.71c.493-2.325-1.01-4.63-3.342-5.123z"/></g><g><path fill="#0b65a7" d="M69.5 60.259a.791.791 0 0 1-.08.61.787.787 0 0 1-.482.383L14.143 76.415a.799.799 0 0 1-.209.03.827.827 0 0 1-.786-.59L7.576 55.831l56.352-15.595 3.437 12.349zM4.157 40.535l15.164-4.195 35.78-9.9 3.85-1.068a.804.804 0 0 1 .209-.027c.309 0 .678.202.786.589l.452 1.623 1.416 5.09L5.463 48.24l-1.869-6.712a.817.817 0 0 1 .563-.993zm65.555 1.894l1.355-6.387a1.789 1.789 0 0 1 2.113-1.37l6.405 1.351a1.784 1.784 0 0 1 1.376 2.108l-1.355 6.386a1.788 1.788 0 0 1-2.113 1.372l-6.405-1.352a1.784 1.784 0 0 1-1.376-2.108zm-6.328-17.446c-.644-2.312-3.067-3.679-5.385-3.038l-10.464 2.897-24.668-5.206-2.713 12.782-16.95 4.692C.886 37.75-.484 40.167.158 42.478l9.553 34.327c.644 2.311 3.067 3.679 5.385 3.037L69.89 64.678c2.318-.642 3.688-3.057 3.046-5.37l-1.64-5.892 6.145 1.296c2.332.492 4.644-1.008 5.137-3.333l3.888-18.322-22.136-4.671z"/></g><g><path fill="#0b65a7" d="M22.997 61.629a1.79 1.79 0 0 0-2.195-1.238l-6.4 1.771a1.782 1.782 0 0 0-1.24 2.19l1.775 6.38c.263.942 1.25 1.5 2.195 1.237l6.4-1.77a1.783 1.783 0 0 0 1.241-2.19z"/></g></g></g></g></svg>