<svg xmlns="http://www.w3.org/2000/svg" width="30" height="24" viewBox="0 0 30 24"><g><g><g><g><g><path fill="#0081b8" d="M23.787 8.08C23.724 3.614 19.984 0 15.396 0a8.486 8.486 0 0 0-5.537 2.041A8.161 8.161 0 0 0 7.19 6.51h-.08C3.19 6.509 0 9.623 0 13.449c0 3.828 3.19 6.942 7.11 6.942h2.61c.352 0 .639-.28.639-.625a.632.632 0 0 0-.64-.624H7.11c-3.214 0-5.83-2.554-5.83-5.692 0-3.139 2.616-5.692 5.83-5.692.172 0 .353.009.554.027a.637.637 0 0 0 .694-.537 6.9 6.9 0 0 1 2.348-4.27 7.188 7.188 0 0 1 4.69-1.729c3.923 0 7.113 3.115 7.113 6.944 0 .138-.026.495-.026.495a.616.616 0 0 0 .193.492.65.65 0 0 0 .51.173c.17-.017.341-.025.51-.025 2.77 0 5.025 2.201 5.025 4.907 0 2.705-2.254 4.907-5.026 4.907H20.83c-.353 0-.64.28-.64.624 0 .345.287.625.64.625h2.865c3.477 0 6.306-2.762 6.306-6.156 0-3.364-2.779-6.107-6.213-6.155z"/></g></g></g><g><g><g><path fill="#0081b8" d="M15.396 2.936c-2.676 0-4.966 1.952-5.327 4.54a.628.628 0 0 0 .547.703.64.64 0 0 0 .72-.534c.276-1.973 2.021-3.46 4.06-3.46.353 0 .64-.28.64-.625a.632.632 0 0 0-.64-.624z"/></g></g></g><g><g><g><path fill="#0081b8" d="M18.356 20.826a.65.65 0 0 0-.903-.05l-1.54 1.342v-7.684a.632.632 0 0 0-.639-.625c-.353 0-.64.28-.64.625v7.684l-1.539-1.342a.65.65 0 0 0-.903.05.614.614 0 0 0 .05.882l2.328 2.03c.2.175.452.262.704.262.252 0 .503-.088.704-.263l2.327-2.03a.614.614 0 0 0 .051-.881z"/></g></g></g></g></g></svg>