<svg xmlns="http://www.w3.org/2000/svg" width="63" height="56" viewBox="0 0 63 56"><g><g><g><g><g><path fill="#0081b8" d="M14.134 29.638c-2.14-1.07-6.15-1.082-6.32-1.082a.921.921 0 0 0 0 1.842c1.036 0 4.044.162 5.496.888a.921.921 0 0 0 .824-1.648z"/></g></g></g><g><g><g><path fill="#0081b8" d="M4.86 47.265a.921.921 0 0 0-.921.92v6.894a.921.921 0 1 0 1.842 0v-6.893a.921.921 0 0 0-.921-.921z"/></g></g></g><g><g><g><path fill="#0081b8" d="M33.945 29.614l-.53.53-1.26-1.261 1.724-1.633.342 1.368c.089.356-.017.737-.276.996zm-19.704 8.365a4.953 4.953 0 0 1-3.627 1.406c-2.665-.08-4.833-2.427-4.833-5.232V32.43a.92.92 0 0 0-.097-.412l-.569-1.138a3.033 3.033 0 0 1-.318-1.35v-.054a4.007 4.007 0 0 1 4.002-4.002h7.94v3.824c0 .618-.145 1.237-.422 1.79l-.465.93a.921.921 0 0 0-.097.412v1.97c0 1.36-.538 2.63-1.514 3.578zm-1.17 3.647l-.866.865a2.035 2.035 0 0 1-2.874 0l-.756-.755c.092-.265.145-.545.156-.833a6.461 6.461 0 0 0 2.04.327c.72 0 1.424-.113 2.092-.327.05.244.133.476.242.693l-.034.03zm22.343-15.831l.605-.573a.921.921 0 1 0-1.268-1.337l-18.14 17.183a1.044 1.044 0 0 1-.721.288h-.199a1.05 1.05 0 0 1-1.048-1.048l.002-.285c.309-.214.603-.454.879-.721a6.775 6.775 0 0 0 2.073-4.902V32.65l.368-.736a5.875 5.875 0 0 0 .617-2.614v-4.745a.921.921 0 0 0-.921-.922H8.799a5.851 5.851 0 0 0-5.845 5.845v.055c0 .75.177 1.502.513 2.173l.472.944v1.504a7.186 7.186 0 0 0 2.954 5.81v.83c0 .465-.313.88-.76 1.007l-3.322.95A3.891 3.891 0 0 0 0 46.474v8.603a.921.921 0 1 0 1.843 0v-8.603c0-.902.606-1.706 1.474-1.954l3.322-.95c.288-.082.555-.209.796-.369l.593.592a3.863 3.863 0 0 0 2.74 1.134c.992 0 1.985-.378 2.74-1.134l.866-.865.03-.034c.388.194.825.304 1.288.304h.198c.744 0 1.451-.282 1.99-.794L30.817 30.15l1.296 1.296-14.935 14.935a4.828 4.828 0 0 0-1.423 3.436v5.262a.921.921 0 1 0 1.842 0v-5.262c0-.806.314-1.563.884-2.133l16.767-16.767a2.905 2.905 0 0 0 .76-2.745z"/></g></g></g><g><g><g><path fill="#0081b8" d="M60.002 0h-31.51a2.894 2.894 0 0 0-2.89 2.89v24.987a.921.921 0 1 0 1.842 0V2.891c0-.578.47-1.048 1.048-1.048h31.51c.578 0 1.048.47 1.048 1.048v25.601a1.05 1.05 0 0 1-1.048 1.048H38.94a.921.921 0 1 0 0 1.843h21.063a2.894 2.894 0 0 0 2.89-2.89V2.89A2.894 2.894 0 0 0 60.003 0z"/></g></g></g><g><g><g><path fill="#0081b8" d="M57.048 5.908h-4.923a.921.921 0 1 0 0 1.843h2.699L44.739 17.835l-4.271-4.272a.921.921 0 0 0-1.303 0l-8.37 8.37a.921.921 0 1 0 1.303 1.303l7.718-7.719 4.272 4.272c.36.36.943.36 1.303 0L56.127 9.053v2.7a.921.921 0 1 0 1.842 0V6.829a.921.921 0 0 0-.921-.921z"/></g></g></g></g></g></svg>