<svg xmlns="http://www.w3.org/2000/svg" width="26" height="32" viewBox="0 0 26 32"><g><g><g><g><g><path fill="#0081b8" d="M15.6 27.733h-1.04V28.8H4.16v-1.067H3.12v2.134H15.6z"/></g><g><path fill="#0081b8" d="M24.96 25.6H1.04v-.488L3.077 1.067h19.846l2.037 24zm0 5.333H1.04v-4.266h23.92zM23.92.487A.525.525 0 0 0 23.4 0H2.6a.525.525 0 0 0-.52.487L0 25.067v6.4c0 .294.233.533.52.533h24.96c.287 0 .52-.239.52-.533V25.02z"/></g><g><path fill="#0081b8" d="M21.32 29.333v-1.066h2.08v1.066z"/></g><g><path fill="#0081b8" d="M18.72 29.333v-1.066h2.08v1.066z"/></g></g></g></g></g></svg>