<svg xmlns="http://www.w3.org/2000/svg" width="26" height="32" viewBox="0 0 26 32"><g><g><path fill="#0081b8" d="M24.673 22.778c-.053.095-.211.393-.892.393h-.904v-8.156h.904c.68 0 .84.291.892.393.095.202.14.424.13.648v6.074a1.38 1.38 0 0 1-.13.648zm-2.97-7.787v9.292h-.991V13.778h1.01zM14.04 29.893v.815a.158.158 0 0 1-.13.083h-2.54a.637.637 0 0 1-.094 0v-1.737a.157.157 0 0 1 .117-.035h2.647v.874zM3.106 14.961v8.198h-.91c-.68 0-.839-.292-.892-.393a1.378 1.378 0 0 1-.129-.648V16.05c-.013-.225.03-.45.123-.654.053-.095.212-.393.892-.393zm1.174.03c.006-.07.006-.139 0-.208v-.982l.985-.03v10.512H4.28zm21.426-.19a1.845 1.845 0 0 0-1.18-.887v-2.76C24.526 5.01 19.35 0 12.99 0 6.627 0 1.45 5.009 1.45 11.154v2.76c-.5.125-.925.455-1.174.91-.193.379-.288.8-.276 1.226v6.074c-.011.424.084.843.276 1.22a2.006 2.006 0 0 0 1.92 1.005h.909a1.18 1.18 0 0 0 1.174 1.118h1.032c.649 0 1.174-.532 1.174-1.19v-10.5c0-.657-.525-1.19-1.174-1.19H4.25c-.648 0-1.174.533-1.174 1.19v.048h-.475v-2.67c0-5.498 4.648-9.965 10.364-9.965 5.716 0 10.364 4.467 10.364 9.964v2.671h-.475v-.047c0-.658-.526-1.19-1.174-1.19h-.986c-.648 0-1.174.532-1.174 1.19v10.541c.014.596.46 1.089 1.045 1.154a3.89 3.89 0 0 1-.95 2.029c-.922 1.035-2.425 1.63-4.45 1.784v-.261a1.24 1.24 0 0 0-1.279-1.19H11.37a1.24 1.24 0 0 0-1.28 1.19v1.784A1.24 1.24 0 0 0 11.37 32h2.54a1.24 1.24 0 0 0 1.28-1.19v-.333c2.377-.16 4.173-.886 5.317-2.165a5.106 5.106 0 0 0 1.285-2.844 1.182 1.182 0 0 0 1.104-1.112h.91a2.006 2.006 0 0 0 1.918-1.006c.193-.376.288-.796.276-1.22V16.05a2.526 2.526 0 0 0-.293-1.25z"/></g></g></svg>