<svg xmlns="http://www.w3.org/2000/svg" width="38" height="40" viewBox="0 0 38 40"><g><g><path fill="#fff" d="M20.733 0H17.27C7.747 0 0 7.815 0 17.421v9.407c0 .54.433.976.968.976H2.42v.688c0 .539.433.976.968.976h1.756c1.736 0 3.148-1.425 3.148-3.176v-7.63c0-1.75-1.412-3.176-3.148-3.176H3.389a.972.972 0 0 0-.968.976v.688h-.478C2.088 8.746 8.905 1.952 17.269 1.952h3.464c8.364 0 15.182 6.794 15.326 15.198h-.478v-.688a.972.972 0 0 0-.967-.976h-1.756c-1.736 0-3.148 1.425-3.148 3.177v7.629c0 1.751 1.412 3.176 3.148 3.176h1.756a.96.96 0 0 0 .685-.288v2.107c0 2.827-2.279 5.125-5.08 5.125h-5.753a2.591 2.591 0 0 0-2.398-1.635h-2.613c-1.427 0-2.588 1.172-2.588 2.612 0 1.44 1.161 2.611 2.588 2.611h2.613a2.591 2.591 0 0 0 2.398-1.635h5.753c3.868 0 7.015-3.175 7.015-7.078v-3.504a.974.974 0 0 0 .767-.955v-9.406C38.001 7.815 30.255 0 20.733 0z"/></g></g></svg>