<svg xmlns="http://www.w3.org/2000/svg" width="78" height="80" viewBox="0 0 78 80"><g><g><path fill="#0b65a7" d="M64.925 62.31c3.331 0 6.04 2.696 6.04 6.01 0 3.314-2.709 6.01-6.04 6.01h-.662v1.021a1.853 1.853 0 0 1-1.858 1.849 1.853 1.853 0 0 1-1.858-1.849V74.33h-5.435a1.853 1.853 0 0 1-1.858-1.849c0-1.021.832-1.848 1.858-1.848h5.435v-4.626h-1.253c-3.33 0-6.04-2.696-6.04-6.009 0-3.315 2.71-6.01 6.04-6.01h1.253v-.573c0-1.021.832-1.848 1.858-1.848 1.027 0 1.858.827 1.858 1.848v.573h4.845c1.026 0 1.858.827 1.858 1.848a1.853 1.853 0 0 1-1.858 1.849h-4.845v4.625zm-2.52-13.34c-8.599 0-15.594 6.96-15.594 15.515S53.806 80 62.405 80C71.005 80 78 73.04 78 64.485s-6.996-15.514-15.595-15.514zM56.97 59.997a2.321 2.321 0 0 0 2.324 2.314h1.253v-4.625h-1.253a2.32 2.32 0 0 0-2.324 2.311zm7.293 10.637h.662a2.322 2.322 0 0 0 2.325-2.313 2.322 2.322 0 0 0-2.325-2.313h-.662zm-21.168-6.148c0-6.783 3.554-12.751 8.904-16.17l-5.776-2.3a1.871 1.871 0 0 0-1.45.03c-.46.206-.816.588-.987 1.058l-3.865 10.63-.705-2.017 1.229-2.988a1.84 1.84 0 0 0-.178-1.73 1.86 1.86 0 0 0-1.542-.819h-7.64a1.86 1.86 0 0 0-1.542.818 1.842 1.842 0 0 0-.178 1.73l1.23 2.989-.706 2.018-3.865-10.63a1.854 1.854 0 0 0-.987-1.059 1.867 1.867 0 0 0-1.45-.03L7.95 52.24C3.12 54.161-.001 58.746-.001 63.92v12.56c0 1.021.833 1.849 1.859 1.849h47.179c-3.659-3.499-5.942-8.41-5.942-13.844zm10.798-35.427c.657-2.497.487-4.534-.504-6.056a4.767 4.767 0 0 0-1.437-1.426 23.99 23.99 0 0 0-.254-3.304c.135-1.636.59-10.494-4.87-14.498C43.459 1.305 39.708 0 35.979 0c-3.033 0-5.922.858-8.135 2.416-1.971 1.388-3.068 2.897-3.655 3.972-1.741.07-5.275.793-6.843 5.293-1.483 4.25-.3 6.894.588 8.134-.055.68-.075 1.277-.077 1.762a4.767 4.767 0 0 0-1.437 1.425c-.99 1.522-1.16 3.56-.504 6.056 1.218 4.632 4.053 5.682 5.595 5.9.943 1.872 2.988 5.644 5.038 7.546.826.768 1.9 1.416 3.191 1.926 1.645.65 3.383.979 5.165.979 1.781 0 3.519-.33 5.164-.98 1.292-.51 2.365-1.157 3.191-1.924 2.05-1.903 4.095-5.675 5.039-7.546 1.541-.219 4.377-1.27 5.594-5.901z"/></g></g></svg>