<svg xmlns="http://www.w3.org/2000/svg" width="116" height="80" viewBox="0 0 116 80"><g><g><path fill="#0b65a7" d="M109.589 51.508H96.906V46.11h12.683zm-.069 10.934h-6.755v-5.398h6.755zm0 11.212h-6.755v-5.398h6.755zM97.7 62.442h-6.755v-5.398h6.755zm0 11.212h-6.755v-5.398h6.755zM85.878 62.442h-6.755v-5.398h6.755zm0 11.212h-6.755v-5.398h6.755zM74.056 62.442h-6.755v-5.398h6.755zM74 73.654H31.791v-5.398H74zM26.771 62.442h-6.755v-5.398h6.755zm0 11.212h-6.755v-5.398h6.755zM14.398 62.442H7.643v-5.398h6.755zm0 11.212H7.643v-5.398h6.755zM7.643 34.968h6.755v5.398H7.643zm12.373 0h6.755v5.398h-6.755zm11.822 0h6.755v5.398h-6.756zm11.82 0h6.756v5.398h-6.755zm0 22.076h6.756v5.398h-6.755zM37.8 51.508V46.11h6.755v5.398zm-11.822 0V46.11h6.755v5.398zm5.86 5.536h6.755v5.398h-6.756zM56.376 46.11v5.398h-6.755V46.11zm-.896-11.142h6.755v5.398H55.48zm6.755 22.076v5.398H55.48v-5.398zm-.793-5.536V46.11h6.755v5.398zm5.86-16.54h6.754v5.398h-6.755zM80.018 46.11v5.398h-6.755V46.11zm-.896-11.142h6.755v5.398h-6.755zM91.84 46.11v5.398h-6.755V46.11zm-.896-11.142h6.755v5.398h-6.755zm11.821 0h6.755v5.398h-6.755zm-42.987-6.605v-2.427c0-5.806-4.705-10.53-10.488-10.53H11.49c-2.678 0-4.856-2.187-4.856-4.876 0-2.689 2.178-4.876 4.856-4.876h91.505a2.821 2.821 0 0 0 2.816-2.827A2.821 2.821 0 0 0 102.996 0H11.491C5.708 0 1.003 4.724 1.003 10.53c0 5.806 4.705 10.53 10.488 10.53H49.29c2.678 0 4.857 2.187 4.857 4.876v2.427H5.065C2.272 28.363 0 30.644 0 33.448v41.466C0 77.72 2.272 80 5.065 80h105.87c2.793 0 5.065-2.281 5.065-5.086V33.448c0-2.804-2.272-5.085-5.065-5.085z"/></g></g></svg>