<svg xmlns="http://www.w3.org/2000/svg" width="60" height="80" viewBox="0 0 60 80"><g><g><g><g><path fill="#0b65a7" d="M43.333 30H16.667v-6.667C16.667 15.981 22.648 10 30 10s13.333 5.981 13.333 13.333zM34.99 64.816a1.67 1.67 0 0 1-1.657 1.85h-6.666a1.667 1.667 0 0 1-1.657-1.85l1.051-9.455A6.594 6.594 0 0 1 23.333 50 6.673 6.673 0 0 1 30 43.333 6.673 6.673 0 0 1 36.667 50c0 2.155-1.02 4.12-2.728 5.361zM58.333 30h-5v-6.667C53.333 10.467 42.866 0 30 0 17.134 0 6.667 10.467 6.667 23.333V30h-5C.745 30 0 30.745 0 31.667v41.666A6.673 6.673 0 0 0 6.667 80h46.666A6.673 6.673 0 0 0 60 73.333V31.667c0-.922-.745-1.667-1.667-1.667z"/></g></g></g></g></svg>