<svg xmlns="http://www.w3.org/2000/svg" width="29" height="32" viewBox="0 0 29 32"><g><g><g><path fill="#fff" d="M2.148 25.755c-.053-.242-.095-.434-.05-.62.033-.137.728-.284 1.025-.347.417-.088.85-.18 1.131-.347.382-.226.589-.642.771-1.01.132-.265.268-.54.43-.63a.093.093 0 0 1 .05-.01c.304 0 .942.623 1.31 1.18.093.142.265.423.465.75.597.975 1.415 2.312 1.842 2.76.385.402 1.008 1.176.855 1.84-.112.515-.71.934-.85 1.026a.892.892 0 0 1-.19.017c-.817 0-2.435-.664-3.305-1.02l-.129-.053c-.485-.199-1.278-.324-2.044-.445-.61-.096-1.445-.228-1.584-.348-.112-.122.018-.522.133-.874.083-.254.168-.515.215-.79.066-.437-.012-.793-.075-1.079zm17.748 2.725c.243-1.068.523-2.521.477-3.378-.01-.194-.028-.406-.045-.611-.032-.383-.08-.952-.03-1.121a.213.213 0 0 1 .032-.011c.002.49.111 1.466.911 1.807.239.101.512.153.81.153.802 0 1.692-.384 2.056-.74a3.66 3.66 0 0 0 .522-.668.789.789 0 0 1 .036.315c-.048.722.312 1.68.996 2.034l.1.051c.244.125.891.457.902.614 0 0-.006.019-.042.051-.162.145-.733.43-1.285.705-.98.488-2.09 1.041-2.588 1.553-.702.72-1.496 1.205-1.975 1.205a.531.531 0 0 1-.158-.021c-.52-.159-.949-.892-.719-1.938zM16.032 8.927zm-.272.186a7.393 7.393 0 0 0-.46.25l-.127.075c-.507.3-1.694 1.003-2.017 1.044-.219.029-.354-.054-.659-.256a9.545 9.545 0 0 0-.22-.143c-.548-.352-.902-.739-.941-.89.179-.135.622-.473.85-.673.46-.419.924-.7 1.154-.7.012 0 .023 0 .034.003.27.046.936.306 1.422.495.224.087.418.163.555.21.43.145.654.33.681.398-.01.045-.032.065-.272.187zm.795-1.9zm.073-.475c0-.736-.478-1.312-1.089-1.312-.597 0-1.082.589-1.082 1.312 0 .05.002.099.007.148a19.635 19.635 0 0 0-.092-.034 1.963 1.963 0 0 1-.104-.631c0-.88.576-1.596 1.285-1.596.708 0 1.284.716 1.284 1.596 0 .366-.103.715-.282.993.047-.149.073-.31.073-.476zm-4.124-.008a1.653 1.653 0 0 0-.094.044 1.816 1.816 0 0 0-.022-.205c-.111-.627-.537-1.082-1.012-1.082a.733.733 0 0 0-.11.008c-.282.046-.504.253-.625.547.106-.644.48-1.122.924-1.122.522 0 .962.686.962 1.498 0 .102-.008.204-.023.312zm-1.297 18.821c-.091-.625-.915-1.245-1.87-1.963-.78-.587-1.665-1.253-1.908-1.817-.504-1.162-.107-3.207.585-4.26.342-.527.622-1.326.892-2.099.292-.835.593-1.698.93-2.076.535-.59 1.029-1.737 1.116-2.642.5.467 1.277 1.058 1.994 1.058.11 0 .218-.014.32-.042.49-.138 1.212-.545 1.91-.939.602-.339 1.344-.757 1.623-.796.479.671 3.26 6.68 3.544 8.608a8.91 8.91 0 0 1-.132 3.283 2.534 2.534 0 0 0-.331-.023c-.775 0-.98.413-1.033.66-.138.64-.152 2.687-.154 3.147-.28.348-1.696 1.983-3.73 2.277a16.54 16.54 0 0 1-2.3.178c-.596 0-.976-.045-1.134-.069l-1.022-1.141c.403-.194.806-.604.7-1.344zm16.174.142c-.961-.384-1.372-.894-1.333-1.655.041-.888-.475-1.539-.72-1.796.148-.552.58-2.463 0-4.122-.624-1.776-2.528-4.49-4.494-7.156-.804-1.095-.842-2.286-.886-3.664-.043-1.315-.09-2.805-.841-4.462C18.29 1.034 16.65 0 14.61 0c-1.214 0-2.46.37-3.42 1.016-1.963 1.323-1.703 4.207-1.532 6.116.024.261.046.508.059.719.114 1.87.01 2.854-.126 3.154-.088.195-.521.752-.98 1.342-.474.61-1.012 1.3-1.453 1.945-.526.775-.95 1.96-1.361 3.105-.3.839-.584 1.63-.86 2.104a2.803 2.803 0 0 0-.285 2.151c-.198.134-.485.399-.726.898-.293.608-.885.935-2.118 1.167-.567.113-.957.345-1.161.69-.298.503-.136 1.135.012 1.567.218.634.082 1.036-.165 1.765-.057.168-.122.359-.187.569-.103.332-.066.633.11.896.466.695 1.824.94 3.223 1.101.835.097 1.749.423 2.632.738.867.309 1.762.628 2.576.725.124.016.246.023.364.023 1.23 0 1.785-.796 1.96-1.123.442-.088 1.965-.37 3.534-.407 1.567-.044 3.083.258 3.512.352.135.252.491.828 1.059 1.125.312.167.746.262 1.19.262.475 0 1.378-.11 2.093-.843.712-.738 2.494-1.68 3.794-2.366.29-.154.562-.297.8-.427.73-.395 1.13-.96 1.094-1.55-.03-.49-.362-.919-.867-1.12z"/></g></g></g></svg>