<svg xmlns="http://www.w3.org/2000/svg" width="80" height="48" viewBox="0 0 80 48"><g><g opacity=".7"><g opacity=".7"><path fill="#ffb600" d="M80 24c0 13.206-10.667 24-24 24-13.206 0-24-10.794-24-24S42.667 0 55.873 0C69.333 0 80 10.794 80 24z"/></g><g opacity=".7"><path fill="#f7981d" d="M56 0c13.206 0 24 10.794 24 24S69.333 48 56 48c-13.206 0-24-10.794-24-24"/></g><g opacity=".7"><path fill="#ff8500" d="M56 0c13.206 0 24 10.794 24 24S69.333 48 56 48"/></g><g opacity=".7"><path fill="#ff5050" d="M23.746 0C10.666.127 0 10.794 0 24s10.667 24 24 24c6.222 0 11.81-2.413 16.127-6.222.889-.762 1.65-1.651 2.413-2.54h-4.953a29.29 29.29 0 0 1-1.777-2.413h8.507a16.268 16.268 0 0 0 1.397-2.54H34.413c-.381-.761-.762-1.65-1.016-2.539h13.206c.762-2.413 1.27-4.952 1.27-7.62 0-1.777-.254-3.428-.508-5.078h-14.73c.127-.89.38-1.651.635-2.54h13.206c-.254-.889-.635-1.778-1.016-2.54H34.286c.38-.889.889-1.65 1.397-2.54h8.507c-.507-.888-1.142-1.777-1.904-2.54h-4.699A21.642 21.642 0 0 1 40 6.477C35.81 2.54 30.095.254 23.873.254c0-.254 0-.254-.127-.254z"/></g><g opacity=".7"><path fill="#e52836" d="M0 24c0 13.206 10.667 24 24 24 6.222 0 11.81-2.413 16.127-6.222.889-.762 1.65-1.651 2.413-2.54h-4.953a29.293 29.293 0 0 1-1.777-2.413h8.507a16.267 16.267 0 0 0 1.397-2.54H34.413c-.381-.761-.762-1.65-1.016-2.539h13.206c.762-2.413 1.27-4.952 1.27-7.62 0-1.777-.254-3.428-.508-5.078h-14.73c.127-.89.38-1.651.635-2.54h13.206c-.254-.889-.635-1.778-1.016-2.54H34.286c.38-.889.889-1.65 1.397-2.54h8.507c-.507-.888-1.142-1.777-1.904-2.54h-4.699A21.644 21.644 0 0 1 40 6.477C35.81 2.54 30.095.254 23.873.254h-.127"/></g><g opacity=".7"><path fill="#cb2026" d="M24 48c6.222 0 11.81-2.413 16.127-6.222.889-.762 1.65-1.651 2.413-2.54h-4.953a29.293 29.293 0 0 1-1.777-2.413h8.507a16.267 16.267 0 0 0 1.397-2.54H34.413c-.381-.761-.762-1.65-1.016-2.539h13.206c.762-2.413 1.27-4.952 1.27-7.62 0-1.777-.254-3.428-.508-5.078h-14.73c.127-.89.38-1.651.635-2.54h13.206c-.254-.889-.635-1.778-1.016-2.54H34.286c.38-.889.889-1.65 1.397-2.54h8.507c-.507-.888-1.142-1.777-1.904-2.54h-4.699A21.643 21.643 0 0 1 40 6.477C35.81 2.54 30.095.254 23.873.254h-.127"/></g><g opacity=".7"><g opacity=".7"><path fill="#fff" d="M32.508 30.095l.38-2.159c-.126 0-.38.127-.634.127-.889 0-1.016-.507-.889-.761l.762-4.445h1.397l.38-2.413h-1.27l.255-1.523h-2.54s-1.524 8.38-1.524 9.396c0 1.524.89 2.16 2.032 2.16.762 0 1.397-.255 1.65-.382z"/></g><g opacity=".7"><path fill="#fff" d="M37.841 22.35c1.397 0 1.143 1.65 1.143 1.777H36.19c0-.127.254-1.778 1.651-1.778zm-4.444 3.682c0 3.555 2.413 4.444 4.444 4.444 1.905 0 2.667-.38 2.667-.38l.508-2.413s-1.397.634-2.667.634c-2.793 0-2.286-2.031-2.286-2.031h5.207s.38-1.651.38-2.286c0-1.65-.888-3.683-3.682-3.683-2.666-.254-4.571 2.54-4.571 5.715z"/></g><g opacity=".7"><path fill="#fff" d="M53.968 30.095l.508-2.793s-1.27.634-2.159.634c-1.777 0-2.54-1.396-2.54-2.92 0-3.048 1.525-4.699 3.302-4.699 1.27 0 2.286.762 2.286.762l.381-2.666s-1.524-.635-2.92-.635c-2.921 0-5.842 2.54-5.842 7.365 0 3.174 1.524 5.333 4.572 5.333 1.015 0 2.412-.38 2.412-.38z"/></g><g opacity=".7"><path fill="#fff" d="M19.048 25.778c0 .38-.254 2.412-1.778 2.412-.762 0-1.016-.634-1.016-1.015 0-.635.38-1.524 2.286-1.524.38.127.508.127.508.127zm-.508-5.715c-1.778 0-3.048.508-3.048.508l-.38 2.16s1.142-.509 2.793-.509c.889 0 1.65.127 1.65.89 0 .507-.126.634-.126.634h-1.143c-2.159 0-4.572.889-4.572 3.81 0 2.285 1.524 2.793 2.413 2.793 1.778 0 2.54-1.143 2.667-1.143l-.127 1.016h2.285l1.016-6.984c0-3.048-2.54-3.175-3.428-3.175z"/></g><g opacity=".7"><path fill="#fff" d="M24.38 30.35c.636 0 3.81.126 3.81-3.302 0-3.175-3.047-2.54-3.047-3.81 0-.635.508-.889 1.397-.889.38 0 1.777.127 1.777.127l.381-2.286s-.889-.254-2.412-.254c-1.905 0-3.81.762-3.81 3.302 0 2.92 3.175 2.667 3.175 3.81 0 .761-.89.888-1.524.888-1.143 0-2.286-.38-2.286-.38l-.38 2.285c.126.254.761.508 2.92.508z"/></g><g opacity=".7"><path fill="#fff" d="M73.905 24.762c0 1.397-.635 3.174-2.032 3.174-.889 0-1.397-.761-1.397-2.031 0-2.032.889-3.302 2.032-3.302.889 0 1.397.635 1.397 2.159zm1.143-6.73l-.508 3.428s-1.016-1.27-2.413-1.27c-2.286 0-4.317 2.794-4.317 6.096 0 2.031 1.015 4.19 3.174 4.19 1.524 0 2.413-1.016 2.413-1.016l-.127.89h2.54l1.904-12.191z"/></g><g opacity=".7"><path fill="#fff" d="M4.698 30.222l1.524-9.143.254 9.143h1.778l3.302-9.143-1.397 9.143h2.666l2.032-12.19h-4.19l-2.54 7.492L8 18.032H4.317l-2.031 12.19z"/></g><g opacity=".7"><path fill="#fff" d="M44.064 30.222c.761-4.19.888-7.619 2.666-6.984.254-1.65.635-2.286.89-2.92h-.509c-1.143 0-2.032 1.523-2.032 1.523l.254-1.397h-2.412L41.27 30.35h2.794z"/></g><g opacity=".7"><path fill="#fff" d="M60.444 25.778c0 .38-.254 2.412-1.777 2.412-.762 0-1.016-.634-1.016-1.015 0-.635.38-1.524 2.286-1.524.38.127.38.127.507.127zm-.634-5.715c-1.778 0-3.048.508-3.048.508l-.381 2.16s1.143-.509 2.794-.509c.889 0 1.65.127 1.65.89 0 .507-.127.634-.127.634h-1.142c-2.16 0-4.572.889-4.572 3.81 0 2.285 1.524 2.793 2.413 2.793 1.778 0 2.54-1.143 2.667-1.143l-.127 1.016h2.285l1.016-6.984c.127-3.048-2.54-3.175-3.428-3.175z"/></g><g opacity=".7"><path fill="#fff" d="M65.397 30.222c.762-4.19.889-7.619 2.667-6.984.253-1.65.634-2.286.888-2.92h-.508c-1.142 0-2.031 1.523-2.031 1.523l.254-1.397h-2.413l-1.65 9.905h2.793z"/></g></g><g opacity=".7"><g opacity=".7"><path fill="#dce5e5" d="M28.571 28.317c0 1.524.89 2.16 2.032 2.16.89 0 1.651-.255 1.905-.382l.38-2.159c-.126 0-.38.127-.634.127-.889 0-1.016-.507-.889-.761l.762-4.445h1.397l.38-2.413h-1.27l.255-1.523"/></g><g opacity=".7"><path fill="#dce5e5" d="M37.841 22.35c1.397 0 1.651 1.65 1.651 1.777H36.19c0-.127.254-1.778 1.651-1.778zm-3.174 3.682c0 3.555 1.142 4.444 3.174 4.444 1.905 0 2.667-.38 2.667-.38l.508-2.413s-1.397.634-2.667.634c-2.793 0-2.286-2.031-2.286-2.031h5.207s.38-1.651.38-2.286c0-1.65-.888-3.683-3.682-3.683-2.666-.254-3.301 2.54-3.301 5.715z"/></g><g opacity=".7"><path fill="#dce5e5" d="M53.968 30.095l.508-2.793s-1.27.634-2.159.634c-1.777 0-2.54-1.396-2.54-2.92 0-3.048 1.525-4.699 3.302-4.699 1.27 0 2.286.762 2.286.762l.381-2.666s-1.524-.635-2.92-.635c-2.921 0-4.572 2.54-4.572 7.365 0 3.174.254 5.333 3.302 5.333 1.015 0 2.412-.38 2.412-.38z"/></g><g opacity=".7"><path fill="#dce5e5" d="M20.317 25.778c0 .38-1.523 2.412-3.047 2.412-.762 0-1.016-.634-1.016-1.015 0-.635.38-1.524 2.286-1.524.38.127 1.777.127 1.777.127zm-5.206-2.92s1.143-.509 2.794-.509c.889 0 1.65.127 1.65.889 0 .508-.126.635-.126.635h-1.143c-2.159 0-4.572.889-4.572 3.81 0 2.285 1.524 2.793 2.413 2.793 1.778 0 2.54-1.143 2.667-1.143l-.127 1.016h2.285l1.016-6.984c0-2.92-2.54-3.048-3.555-3.048"/></g><g opacity=".7"><path fill="#dce5e5" d="M21.587 30.095s.762.254 2.92.254c.636 0 3.81.127 3.81-3.301 0-3.175-3.047-2.54-3.047-3.81 0-.635.508-.889 1.397-.889.38 0 1.777.127 1.777.127l.381-2.286s-.888-.254-2.412-.254c-1.905 0-2.54.762-2.54 3.302 0 2.92 1.905 2.667 1.905 3.81 0 .761-.89.888-1.524.888"/></g><g opacity=".7"><path fill="#dce5e5" d="M74.413 24.762c0 1.397-1.143 3.174-2.54 3.174-.889 0-1.397-.761-1.397-2.031 0-2.032.89-3.302 2.032-3.302.889 0 1.905.635 1.905 2.159zm.127-3.302s-1.016-1.27-2.413-1.27c-2.286 0-3.048 2.794-3.048 6.096 0 2.031-.254 4.19 1.905 4.19 1.524 0 2.413-1.016 2.413-1.016l-.127.89h2.54l1.904-12.191"/></g><g opacity=".7"><path fill="#dce5e5" d="M4.698 30.222l1.524-9.143.254 9.143h1.778l3.302-9.143-1.397 9.143h2.666l2.032-12.19h-3.174l-3.556 7.492L8 18.032H6.603l-4.317 12.19z"/></g><g opacity=".7"><path fill="#dce5e5" d="M41.397 30.222h2.666c.762-4.19.89-7.619 2.667-6.984.254-1.65.635-2.286.89-2.92h-.509c-1.143 0-2.032 1.523-2.032 1.523l.254-1.397"/></g><g opacity=".7"><path fill="#dce5e5" d="M61.587 25.778c0 .38-1.523 2.412-3.047 2.412-.762 0-1.016-.634-1.016-1.015 0-.635.38-1.524 2.286-1.524.507.127 1.777.127 1.777.127zm-5.206-2.92s1.143-.509 2.794-.509c.889 0 1.65.127 1.65.889 0 .508-.127.635-.127.635h-1.142c-2.16 0-4.572.889-4.572 3.81 0 2.285 1.524 2.793 2.413 2.793 1.778 0 2.54-1.143 2.667-1.143l-.127 1.016h2.285l1.016-6.984c0-2.92-2.54-3.048-3.555-3.048"/></g><g opacity=".7"><path fill="#dce5e5" d="M62.73 30.222h2.667c.762-4.19.889-7.619 2.666-6.984.254-1.65.635-2.286.89-2.92h-.509c-1.142 0-2.031 1.523-2.031 1.523l.254-1.397"/></g></g></g></g></svg>