<svg xmlns="http://www.w3.org/2000/svg" width="34" height="24" viewBox="0 0 34 24"><g><g><g><g><path fill="#3e3b3b" d="M2.689 1.418L14.935 11.2c.556.443 1.321.64 2.064.603.742.037 1.508-.159 2.063-.603L31.31 1.418C32.29.638 32.068 0 30.823 0H3.178c-1.246 0-1.468.639-.49 1.418z"/></g><g><path fill="#3e3b3b" d="M32.194 3.999L18.81 14.245c-.5.379-1.156.564-1.81.555-.653.009-1.309-.177-1.81-.555L1.807 3.999C.813 3.239 0 3.647 0 4.903v16.812C0 22.97 1.02 24 2.266 24h29.467C32.98 24 34 22.971 34 21.715V4.903c0-1.256-.813-1.664-1.806-.904z"/></g></g></g></g></svg>