<svg xmlns="http://www.w3.org/2000/svg" width="82" height="80" viewBox="0 0 82 80"><g><g><g><g><g><path fill="#0b65a7" d="M30.649 26.61l-4.988-4.785c.58-1.072.94-2.285.94-3.593 0-4.147-3.31-7.507-7.397-7.507-4.088 0-7.403 3.358-7.403 7.507 0 4.149 3.315 7.51 7.403 7.51a7.266 7.266 0 0 0 3.911-1.158l4.981 4.779a17.094 17.094 0 0 1 2.553-2.754z"/></g><g><path fill="#0b65a7" d="M51.747 26.01l6.628-11.32c.653.19 1.33.326 2.04.326 4.095 0 7.404-3.36 7.404-7.51C67.82 3.36 64.51 0 60.415 0c-4.088 0-7.396 3.357-7.396 7.506 0 2.06.818 3.92 2.14 5.279l-6.606 11.289a16.503 16.503 0 0 1 3.194 1.937z"/></g><g><path fill="#0b65a7" d="M74.606 35.488c-3.182 0-5.878 2.052-6.923 4.914l-9.208-.923c0 .071.01.138.01.207 0 1.219-.132 2.409-.371 3.558l9.205.922c.556 3.585 3.597 6.333 7.287 6.333 4.086 0 7.394-3.358 7.394-7.505 0-4.145-3.308-7.506-7.394-7.506z"/></g><g><path fill="#0b65a7" d="M49.195 65.01l-2.059-9.13c-1.162.411-2.371.705-3.632.852l2.062 9.132a7.496 7.496 0 0 0-3.996 6.633c0 4.147 3.308 7.503 7.403 7.503 4.086 0 7.394-3.358 7.394-7.503.005-4.07-3.19-7.366-7.172-7.487z"/></g><g><path fill="#0b65a7" d="M25.048 43.311L13.586 47.21c-1.323-2.05-3.6-3.41-6.19-3.41C3.308 43.798 0 47.156 0 51.303c0 4.153 3.308 7.512 7.396 7.512 4.084 0 7.4-3.359 7.4-7.512 0-.173-.036-.332-.05-.502l11.5-3.909a17.322 17.322 0 0 1-1.198-3.582z"/></g><g><path fill="#0b65a7" d="M28.89 39.686c0-7.11 5.68-12.875 12.686-12.875S54.26 32.576 54.26 39.686c0 7.111-5.68 12.876-12.685 12.876-7.006 0-12.686-5.765-12.686-12.876z"/></g></g></g></g></g></svg>