<svg xmlns="http://www.w3.org/2000/svg" width="68" height="80" viewBox="0 0 68 80"><g><g><g><path fill="#0b65a7" d="M32.133 48.05a2.335 2.335 0 0 1-1.657.688 2.33 2.33 0 0 1-1.657-.687l-4.165-4.173a2.35 2.35 0 0 1 0-3.32 2.34 2.34 0 0 1 3.313 0l2.509 2.514 9.244-9.26a2.34 2.34 0 0 1 3.313 0 2.35 2.35 0 0 1 0 3.319zM34 24.76c-8.39 0-15.215 6.838-15.215 15.242 0 8.405 6.825 15.243 15.215 15.243 8.389 0 15.214-6.838 15.214-15.243 0-8.404-6.825-15.242-15.214-15.242z"/></g><g><path fill="#0b65a7" d="M34 59.938c-10.974 0-19.9-8.943-19.9-19.937 0-10.993 8.926-19.937 19.9-19.937 10.973 0 19.9 8.944 19.9 19.937 0 10.994-8.927 19.937-19.9 19.937zm33.92-38.232l-.002-.062a83.521 83.521 0 0 1-.071-2.486c-.066-4.411-3.566-8.06-7.97-8.306-9.18-.514-16.283-3.513-22.351-9.439l-.052-.05a5.103 5.103 0 0 0-6.946 0l-.051.05c-6.069 5.926-13.171 8.925-22.353 9.44-4.403.245-7.903 3.894-7.968 8.305a82.579 82.579 0 0 1-.072 2.486l-.004.144c-.179 9.38-.4 21.053 3.498 31.648 2.143 5.826 5.389 10.89 9.647 15.054 4.85 4.741 11.201 8.505 18.879 11.187A5.83 5.83 0 0 0 34 80a5.725 5.725 0 0 0 1.9-.324c7.669-2.687 14.014-6.453 18.86-11.193 4.255-4.165 7.501-9.23 9.646-15.058 3.913-10.627 3.692-22.322 3.514-31.719z"/></g></g></g></svg>