<svg xmlns="http://www.w3.org/2000/svg" width="75" height="80" viewBox="0 0 75 80"><g><g><g><path fill="#0b65a7" d="M16.401 61.253a2.346 2.346 0 0 0-2.344 2.344 2.345 2.345 0 0 0 2.344 2.344 2.346 2.346 0 0 0 2.344-2.344 2.346 2.346 0 0 0-2.344-2.344z"/></g><g><path fill="#0b65a7" d="M16.401 70.629a7.04 7.04 0 0 1-7.032-7.032c0-3.051 1.966-5.629 4.688-6.6v-26.37a2.343 2.343 0 0 1 2.344-2.344 2.343 2.343 0 0 1 2.344 2.344v26.37c2.722.971 4.688 3.549 4.688 6.6A7.04 7.04 0 0 1 16.4 70.63zm11.72-18.751h-4.688a2.343 2.343 0 0 1-2.344-2.344 2.343 2.343 0 0 1 2.344-2.344h4.687v-4.844h-4.687a2.343 2.343 0 0 1-2.344-2.344 2.343 2.343 0 0 1 2.344-2.344h4.687v-4.687h-4.687a2.343 2.343 0 0 1-2.344-2.344 2.343 2.343 0 0 1 2.344-2.344h4.687v-4.688h-4.687a2.343 2.343 0 0 1-2.344-2.344 2.343 2.343 0 0 1 2.344-2.344h4.687V11.72C28.12 5.258 22.863 0 16.401 0S4.681 5.258 4.681 11.72v40.467A16.364 16.364 0 0 0 .249 66.5C1.52 73.793 8.045 80 16.367 80c9.164 0 16.441-7.393 16.441-16.403 0-4.241-1.696-8.343-4.688-11.41z"/></g><g><path fill="#0b65a7" d="M65.622 30.627c0-.797-.093-1.594-.234-2.344-.328-1.5-.89-2.907-1.734-4.125a11.677 11.677 0 0 0-3.282-3.329c-1.219-.797-2.625-1.36-4.125-1.687-.75-.141-1.547-.235-2.344-.235-.797 0-1.594.094-2.344.235-1.5.328-2.906.89-4.125 1.687a11.675 11.675 0 0 0-3.281 3.329c-.844 1.218-1.407 2.625-1.735 4.125-.14.75-.234 1.547-.234 2.344 0 .797.094 1.593.234 2.344.328 1.5.89 2.906 1.735 4.125a11.68 11.68 0 0 0 3.281 3.328c1.219.797 2.625 1.36 4.125 1.688.75.14 1.547.234 2.344.234.797 0 1.594-.094 2.344-.234 1.5-.328 2.906-.89 4.125-1.688a11.677 11.677 0 0 0 3.282-3.328c.843-1.219 1.406-2.625 1.734-4.125.14-.75.234-1.547.234-2.344z"/></g><g><path fill="#0b65a7" d="M56.247 14.407v-2.531a2.32 2.32 0 0 0-2.344-2.344 2.32 2.32 0 0 0-2.344 2.344v2.53c.75-.14 1.547-.186 2.344-.186.797 0 1.594.046 2.344.187z"/></g><g><path fill="#0b65a7" d="M51.56 46.846v2.532a2.321 2.321 0 0 0 2.343 2.344 2.321 2.321 0 0 0 2.344-2.344v-2.532c-.75.141-1.547.188-2.344.188-.797 0-1.594-.047-2.344-.188z"/></g><g><path fill="#0b65a7" d="M40.824 20.83a14.734 14.734 0 0 1 3.282-3.329l-1.781-1.781c-.938-.938-2.438-.938-3.329 0a2.266 2.266 0 0 0 0 3.28z"/></g><g><path fill="#0b65a7" d="M66.982 40.424a14.732 14.732 0 0 1-3.281 3.328l1.78 1.782a2.38 2.38 0 0 0 1.688.703c.61 0 1.172-.235 1.64-.703.938-.89.938-2.39 0-3.282z"/></g><g><path fill="#0b65a7" d="M65.482 15.72L63.7 17.5a14.736 14.736 0 0 1 3.28 3.328l1.83-1.828c.937-.89.937-2.39 0-3.282-.892-.937-2.392-.937-3.33 0z"/></g><g><path fill="#0b65a7" d="M40.824 40.424l-1.828 1.828a2.266 2.266 0 0 0 0 3.282c.469.468 1.031.703 1.64.703a2.38 2.38 0 0 0 1.688-.703l1.781-1.782a14.733 14.733 0 0 1-3.28-3.328z"/></g><g><path fill="#0b65a7" d="M35.152 28.283a2.32 2.32 0 0 0-2.344 2.344 2.321 2.321 0 0 0 2.344 2.344h2.531c-.14-.75-.187-1.547-.187-2.344 0-.797.047-1.594.187-2.344z"/></g><g><path fill="#0b65a7" d="M72.654 28.283h-2.531c.14.75.187 1.547.187 2.344 0 .797-.047 1.593-.187 2.344h2.531a2.321 2.321 0 0 0 2.344-2.344 2.32 2.32 0 0 0-2.344-2.344z"/></g></g></g></svg>