<?xml version="1.0" encoding="UTF-8"?>
<svg id="SVGDoc" width="38" height="40" xmlns="http://www.w3.org/2000/svg" version="1.1" xmlns:xlink="http://www.w3.org/1999/xlink" xmlns:avocode="https://avocode.com/" viewBox="0 0 38 40"><defs></defs><desc>Generated with Avocode.</desc><g><g><title>pdf-3</title><g><title>Path 1210</title><path d="M3.34584,39.6875v0v-39.375v0h22.24777v0l8.50175,8.1775v0v31.1975v0z" fill="#ffffff" fill-opacity="1"></path></g><g><title>Path 1211</title><path d="M34.42021,8.36125v31.63875h-31.39922v-40h22.70776zM25.45978,0.625h-21.7891v38.75h30.09985v-30.755l-8.31075,-7.995" fill="#cccccc" fill-opacity="1"></path></g><g><title>Path 1212</title><path d="M34.42014,8.36125v0h-8.69269v0v-8.36125v0z" fill="#999999" fill-opacity="1"></path></g><g><title>Path 1213</title><path d="M31.30563,33.03876v0h-31.30567v0v-10.14752v0h38v0z" fill="#0081b8" fill-opacity="1"></path></g><g><title>Path 1214</title><path d="M3.02099,35.94379v0v-2.90503v0h-3.02102v0z" fill="#999999" fill-opacity="1"></path></g><g><title>Group 390</title><g><title>Path 1215</title><path d="MNaN,NaNcNaN,NaN NaN,NaN NaN,NaNcNaN,NaN NaN,NaN NaN,NaNcNaN,NaN NaN,NaN NaN,NaNcNaN,NaN NaN,NaN NaN,NaNzM11.13424,30.89502v-1.88501h1.35393l0.26637,-0.00378c0.82901,0 1.37993,-0.12872 1.65152,-0.38495c0.27156,-0.25628 0.40799,-0.77502 0.40799,-1.55499c0,-0.78504 -0.14291,-1.31629 -0.4288,-1.59125c-0.28455,-0.27503 -0.8381,-0.41254 -1.65799,-0.41254h-2.74426v5.83252z" fill="#ffffff" fill-opacity="1"></path></g><g><title>Path 1216</title><path d="M16.69814,29.96376v-3.96747h1.70995c0.53535,0 0.87578,0.11499 1.0213,0.34869c0.14425,0.23376 0.217,0.78002 0.217,1.64001c0,0.83252 -0.08055,1.37006 -0.24167,1.61377c-0.16245,0.24249 -0.51715,0.36499 -1.06807,0.36499h-1.6385zM18.56404,30.89502c0.95631,0 1.57094,-0.20752 1.84378,-0.62128c0.27158,-0.41498 0.40802,-1.34997 0.40802,-2.80499c0,-0.89124 -0.17021,-1.51502 -0.50935,-1.87122c-0.33913,-0.35626 -0.93164,-0.53503 -1.77884,-0.53503h-2.97946v5.83252z" fill="#ffffff" fill-opacity="1"></path></g><g><title>Path 1217</title><path d="M22.80508,25.995v0v1.57251v0h2.71704v0v0.92999v0h-2.71704v0v2.39752v0h-1.15118v0v-5.83252v0h4.01505v0v0.9325v0z" fill="#ffffff" fill-opacity="1"></path></g></g></g></g></svg>