<svg xmlns="http://www.w3.org/2000/svg" width="76" height="56" viewBox="0 0 76 56"><g><g><g><g><g><path fill="#0081b8" d="M67.052 25.208c-2.586-1.298-7.435-1.313-7.64-1.313-.615 0-1.113.5-1.113 1.118 0 .617.498 1.117 1.113 1.117 1.251 0 4.884.194 6.644 1.077a1.113 1.113 0 0 0 1.494-.5 1.12 1.12 0 0 0-.498-1.499z"/></g></g></g><g><g><g><path fill="#0081b8" d="M67.181 35.33a5.971 5.971 0 0 1-4.384 1.705c-3.222-.097-5.843-2.945-5.843-6.349v-2.089c0-.173-.04-.344-.117-.5l-.688-1.38a3.692 3.692 0 0 1-.385-1.637v-.067c0-2.678 2.17-4.857 4.839-4.857h9.6v4.641c0 .75-.177 1.502-.511 2.172l-.562 1.129a1.12 1.12 0 0 0-.118.5v2.389c0 1.65-.65 3.193-1.83 4.343zm-4.198 7.219l-2.526-2.536c.044-.2.069-.42.069-.664v-.471a7.78 7.78 0 0 0 2.46.395c.845 0 1.67-.128 2.455-.373v.45c0 .223.028.441.08.651zm-20.328.943a.07.07 0 0 1-.057.034c-.036.004-.054-.015-.062-.022l-2.786-2.796 5.253-3.604 1.114 1.175zm-4.64-4.3l-6.03-4.137v-2.086a12.5 12.5 0 0 0 6.04 1.525c2.13 0 4.178-.51 6.018-1.48v2.04zm-4.523 4.311c-.007.008-.025.026-.062.023a.07.07 0 0 1-.056-.035L29.91 38.28l1.115-1.176 5.252 3.604zM27.224 21.02v-2.772c0-.168-.038-.334-.11-.486a10.751 10.751 0 0 1-1.08-4.696v-2.39c0-4.654 3.772-8.44 8.409-8.44h15.552v10.83c0 1.627-.364 3.207-1.08 4.696-.073.152-.11.318-.11.486v3.182c0 3.026-1.213 5.833-3.413 7.903-.275.258-.56.5-.855.726l-.02.014c-2.06 1.571-4.586 2.335-7.223 2.164-5.647-.367-10.07-5.294-10.07-11.217zM16.51 39.147v-1.332a8.26 8.26 0 0 0 2.939-3.643c.133.962.33 1.874.634 2.67-.444.542-1.493 1.554-3.573 2.305zm-4.684-2.109c-3.325 0-6.029-2.715-6.029-6.051a1.115 1.115 0 0 0-1.296-1.101l.01-.288a58.16 58.16 0 0 1 .093-2.116c.142-2.008.941-3.858 2.25-5.21a6.868 6.868 0 0 1 4.972-2.115c1.884 0 3.65.75 4.97 2.115 1.31 1.352 2.11 3.202 2.252 5.21.044.622.068 1.348.093 2.116l.007.2c-1.212-1.874-3.082-3.254-5.5-4.034-2.232-.72-4.153-.675-4.234-.673-.291.008-.568.13-.77.341l-2.009 2.091a1.12 1.12 0 0 0 .029 1.58 1.11 1.11 0 0 0 1.574-.029l1.671-1.74c1.44.071 6.07.612 7.871 4.592a6.021 6.021 0 0 1-5.954 5.112zm1.693 5.13a2.45 2.45 0 0 1-3.387 0l-1.035-.988c.175-.328.27-.7.27-1.091v-1.191a8.253 8.253 0 0 0 4.916 0v1.19c0 .391.096.764.27 1.092zm-6.378-3.024c-2.082-.752-3.127-1.755-3.573-2.303.304-.797.501-1.711.635-2.675a8.326 8.326 0 0 0 2.938 3.638zm65.46 1.973L68.006 39.8a.468.468 0 0 1-.337-.449v-1.54c.374-.26.73-.552 1.064-.877a8.235 8.235 0 0 0 2.507-5.946V28.86l.444-.892a7.15 7.15 0 0 0 .746-3.172V19.04c0-.617-.498-1.118-1.113-1.118H60.603c-3.896 0-7.065 3.182-7.065 7.092v.066c0 .91.214 1.823.62 2.637l.57 1.145v1.825a8.729 8.729 0 0 0 3.571 7.05v1.614c0 .249 0 .352-.919.616l-2.243.643-6.49-2.369c.023-.307-.08-.62-.304-.855l-2.074-2.187v-3.671c.22-.182.436-.368.645-.565a13.138 13.138 0 0 0 4.117-9.534v-2.931a12.957 12.957 0 0 0 1.19-5.432V1.117C52.221.5 51.723 0 51.108 0H34.443c-5.865 0-10.636 4.79-10.636 10.676v2.39c0 1.88.4 3.705 1.19 5.43v2.523c0 4.177 1.85 7.94 4.762 10.422v3.757l-2.074 2.187a1.119 1.119 0 0 0-.303.855l-6.85 2.5a5.83 5.83 0 0 0-1.376.724l-1.076-.54c3.202-1.399 4.216-3.366 4.265-3.464a1.12 1.12 0 0 0 0-1c-.803-1.61-.9-4.563-.978-6.936-.026-.79-.05-1.536-.098-2.2-.38-5.36-4.439-9.403-9.443-9.403s-9.063 4.042-9.443 9.402c-.047.665-.071 1.411-.097 2.201-.078 2.373-.176 5.326-.978 6.937a1.12 1.12 0 0 0 0 1c.049.097 1.06 2.06 4.269 3.46l-2.988 1.5A4.68 4.68 0 0 0 0 46.627v8.255c0 .617.498 1.117 1.113 1.117s1.114-.5 1.114-1.117v-8.255c0-.94.52-1.786 1.358-2.207l3.72-1.867L8.6 43.788a4.661 4.661 0 0 0 3.227 1.294c1.161 0 2.323-.432 3.227-1.294l1.294-1.235 1.213.61a5.9 5.9 0 0 0-.895 3.119v8.6c0 .617.498 1.118 1.113 1.118s1.113-.5 1.113-1.118v-8.6c0-1.534.965-2.917 2.402-3.441l7.222-2.636 3.006 4.526a2.294 2.294 0 0 0 1.92 1.03c.607 0 1.19-.24 1.626-.677l1.834-1.841v11.64c0 .617.498 1.117 1.113 1.117s1.113-.5 1.113-1.118v-11.64l1.834 1.842a2.29 2.29 0 0 0 1.856.666 2.294 2.294 0 0 0 1.69-1.018l3.006-4.527 7.222 2.636a3.672 3.672 0 0 1 2.402 3.441v8.6c0 .618.498 1.118 1.113 1.118s1.113-.5 1.113-1.117v-8.6c0-1.554-.615-3.012-1.646-4.09l.275-.078c.277-.08.656-.188 1.036-.375l2.842 2.853v10.29c0 .617.498 1.117 1.113 1.117s1.114-.5 1.114-1.117v-10.29l2.822-2.834c.15.077.308.142.474.19l4.598 1.318a2.476 2.476 0 0 1 1.782 2.372v9.244c0 .617.499 1.117 1.114 1.117.615 0 1.113-.5 1.113-1.117v-9.244a4.72 4.72 0 0 0-3.397-4.522z"/></g></g></g><g><g><g><path fill="#0081b8" d="M70.125 46.596c-.615 0-1.113.5-1.113 1.117v7.169c0 .617.498 1.117 1.113 1.117s1.114-.5 1.114-1.117v-7.169c0-.617-.499-1.117-1.114-1.117z"/></g></g></g><g><g><g><path fill="#0081b8" d="M5.875 48.073c-.615 0-1.114.5-1.114 1.118v5.691c0 .617.499 1.117 1.114 1.117.615 0 1.113-.5 1.113-1.117v-5.691c0-.617-.498-1.118-1.113-1.118z"/></g></g></g><g><g><g><path fill="#0081b8" d="M47.134 13.47c-4.21-4.226-13.02-3.418-16.613-2.875a2.291 2.291 0 0 0-1.953 2.286v2.574c0 .617.499 1.117 1.114 1.117.614 0 1.113-.5 1.113-1.117V12.88c0-.038.025-.07.058-.075 1.435-.217 4.282-.552 7.233-.355 3.471.232 5.986 1.107 7.473 2.6a1.11 1.11 0 0 0 1.575 0 1.12 1.12 0 0 0 0-1.58z"/></g></g></g><g><g><g><path fill="#0081b8" d="M24.92 48.986c-.615 0-1.113.5-1.113 1.117v4.78c0 .616.498 1.117 1.113 1.117s1.114-.5 1.114-1.118v-4.779c0-.617-.499-1.117-1.114-1.117z"/></g></g></g><g><g><g><path fill="#0081b8" d="M51.108 48.986c-.615 0-1.113.5-1.113 1.117v4.78c0 .616.498 1.117 1.113 1.117s1.113-.5 1.113-1.118v-4.779c0-.617-.498-1.117-1.113-1.117z"/></g></g></g></g></g></svg>