<svg xmlns="http://www.w3.org/2000/svg" width="187" height="48" viewBox="0 0 187 48"><g><g opacity=".7"><g opacity=".7"><path fill="#139ad6" d="M145.741 22.36c-.593 3.578-3.265 3.578-5.936 3.578h-1.781l1.187-6.857c0-.298.297-.597.89-.597h.594c1.781 0 3.562 0 4.453 1.193.593.298.593 1.192.593 2.683m-1.187-9.838h-10.092c-.594 0-1.187.596-1.484 1.192l-4.156 26.236c0 .596.297.895.89.895h5.344c.593 0 .89-.299.89-.895l1.187-7.453c0-.596.594-1.193 1.484-1.193h3.266c6.827 0 10.685-3.28 11.576-9.838.593-2.684 0-5.069-1.188-6.56-1.78-1.49-4.452-2.384-7.717-2.384"/></g><g opacity=".7"><g opacity=".7"><path fill="#263b80" d="M73.019 22.36c-.594 3.578-3.265 3.578-5.936 3.578h-1.485l1.188-6.857c0-.298.297-.597.89-.597h.594c1.78 0 3.562 0 4.452 1.193.297.298.594 1.192.297 2.683m-1.187-9.838H61.74c-.594 0-1.188.596-1.484 1.192L56.1 39.95c0 .596.297.895.89.895h4.75c.593 0 1.187-.597 1.484-1.193l1.187-7.155c0-.596.594-1.193 1.484-1.193h3.265c6.827 0 10.686-3.28 11.577-9.838.593-2.684 0-5.069-1.188-6.56-1.78-1.49-4.155-2.384-7.717-2.384"/></g><g opacity=".7"><path fill="#263b80" d="M95.578 31.602c-.594 2.684-2.672 4.77-5.64 4.77-1.484 0-2.671-.596-3.265-1.192-.594-.894-.89-2.087-.89-3.578.296-2.683 2.671-4.77 5.342-4.77 1.485 0 2.375.596 3.265 1.193.89.894 1.188 2.385 1.188 3.577m6.827-9.54h-4.75c-.296 0-.89.298-.89.596l-.297 1.49-.297-.595c-1.187-1.491-3.265-2.087-5.64-2.087-5.342 0-10.091 4.174-10.982 9.838-.593 2.982.297 5.665 1.781 7.454 1.484 1.788 3.562 2.385 6.234 2.385 4.452 0 6.826-2.684 6.826-2.684l-.296 1.491c0 .596.296.895.89.895h4.453c.593 0 1.187-.597 1.484-1.193l2.671-16.696c-.297-.298-.89-.894-1.187-.894"/></g></g><g opacity=".7"><path fill="#139ad6" d="M168.003 31.602c-.593 2.684-2.671 4.77-5.64 4.77-1.484 0-2.67-.596-3.265-1.192-.593-.894-.89-2.087-.89-3.578.297-2.683 2.671-4.77 5.343-4.77 1.484 0 2.374.596 3.265 1.193 1.187.894 1.484 2.385 1.187 3.577m6.827-9.54h-4.749c-.297 0-.89.298-.89.596l-.297 1.49-.297-.595c-1.187-1.491-3.265-2.087-5.64-2.087-5.343 0-10.092 4.174-10.982 9.838-.594 2.982.296 5.665 1.78 7.454 1.485 1.788 3.562 2.385 6.234 2.385 4.452 0 6.827-2.684 6.827-2.684l-.297 1.491c0 .596.297.895.89.895h4.453c.594 0 1.187-.597 1.484-1.193l2.672-16.696c-.297-.298-.594-.894-1.188-.894"/></g><g opacity=".7"><path fill="#263b80" d="M128.229 22.062h-5.047c-.593 0-.89.298-1.187.596l-6.53 10.137-2.968-9.54c-.297-.597-.594-.895-1.484-.895h-4.75c-.593 0-.89.596-.89 1.193l5.343 15.8-5.046 7.156c-.297.596 0 1.49.593 1.49h4.75c.593 0 .89-.297 1.187-.595l16.325-23.553c.89-.895.297-1.789-.296-1.789"/></g><g opacity=".7"><path fill="#139ad6" d="M180.47 13.416l-4.156 26.832c0 .597.297.895.89.895h4.156c.594 0 1.188-.597 1.484-1.193L187 13.714c0-.596-.297-.894-.89-.894h-4.75c-.297-.298-.593 0-.89.596"/></g><g opacity=".7"><path fill="#263b80" d="M34.135 3.578C32.057 1.192 28.198 0 22.855 0H8.016c-.891 0-1.782.894-2.078 1.789L0 40.845c0 .894.594 1.49 1.187 1.49h9.202l2.374-14.608v.596c.297-.895 1.188-1.789 2.078-1.789h4.453c8.608 0 15.138-3.578 17.216-13.416v-.895c-.297 0-.297 0 0 0 .296-3.875-.297-6.26-2.375-8.645"/></g><g opacity=".7"><path fill="#139ad6" d="M36.213 12.223v.895c-2.078 10.137-8.608 13.416-17.216 13.416h-4.453c-.89 0-1.78.894-2.077 1.789L9.498 46.509c0 .596.297 1.193 1.188 1.193h7.717c.89 0 1.781-.597 1.781-1.49v-.3.001l1.484-9.242v-.597c0-.894.89-1.49 1.781-1.49h1.188c7.42 0 13.357-2.982 14.84-11.926.594-3.577.298-6.857-1.483-8.944-.297-.596-.89-1.192-1.781-1.49"/></g><g opacity=".7"><path fill="#232c65" d="M34.135 11.33c-.297 0-.594-.3-.89-.3-.297 0-.594 0-.891-.297-1.187-.298-2.375-.298-3.859-.298H16.92c-.297 0-.594 0-.89.298-.594.298-.89.894-.89 1.49l-2.375 15.504v.596c.296-.895 1.187-1.789 2.077-1.789h4.453c8.608 0 15.138-3.578 17.216-13.416 0-.298 0-.596.296-.895-.593-.298-.89-.596-1.484-.596-.89-.298-.89-.298-1.187-.298"/></g></g></g></svg>