<svg xmlns="http://www.w3.org/2000/svg" width="24" height="24" viewBox="0 0 24 24"><g><g><path fill="#3e3b3b" d="M23.462 18.983l-3.706-3.715c-.739-.737-1.961-.715-2.725.051l-1.867 1.871-.369-.205c-1.18-.655-2.793-1.553-4.491-3.256-1.704-1.707-2.6-3.327-3.255-4.51-.07-.125-.136-.246-.201-.36L8.1 7.603l.616-.618c.765-.767.786-1.992.05-2.731L5.06.539C4.324-.199 3.1-.177 2.336.591L1.29 1.644l.029.028c-.35.448-.643.964-.861 1.522a6.32 6.32 0 0 0-.383 1.543c-.49 4.067 1.365 7.783 6.396 12.826 6.956 6.971 12.56 6.444 12.803 6.419a6.25 6.25 0 0 0 1.544-.39 6.016 6.016 0 0 0 1.513-.858l.022.02 1.059-1.038c.763-.767.785-1.993.05-2.733z"/></g></g></svg>