<svg xmlns="http://www.w3.org/2000/svg" width="24" height="24" viewBox="0 0 24 24"><g><g><path fill="#ff8f00" d="M14.945 17.672c-1.11 0-2.008-1.158-2.008-2.587 0-1.428.899-2.587 2.008-2.587 1.11 0 2.008 1.159 2.008 2.587 0 1.43-.899 2.587-2.008 2.587zm-6.018.012a.663.663 0 0 1-.544.292.644.644 0 0 1-.39-.132.724.724 0 0 1-.153-.979l7.233-10.549a.663.663 0 0 1 .544-.292c.14 0 .275.046.39.132.3.226.368.665.153.979zm.128-11.356c1.11 0 2.008 1.158 2.008 2.587 0 1.429-.899 2.587-2.008 2.587-1.11 0-2.008-1.158-2.008-2.587 0-1.43.899-2.587 2.008-2.587zm14.635 5.019L20.752 9.02l1.072-3.692a.851.851 0 0 0-.116-.72.772.772 0 0 0-.618-.338l-3.683-.07-1.2-3.649a.8.8 0 0 0-.498-.512.753.753 0 0 0-.69.108l-3.02 2.213L8.982.148A.752.752 0 0 0 8.29.04a.8.8 0 0 0-.498.512l-1.2 3.649-3.683.07a.772.772 0 0 0-.618.338.851.851 0 0 0-.116.72L3.248 9.02.31 11.347A.833.833 0 0 0 0 12c0 .257.115.499.31.654l2.938 2.325-1.072 3.692a.851.851 0 0 0 .116.72.772.772 0 0 0 .618.338l3.683.07 1.2 3.649a.8.8 0 0 0 .498.512c.233.08.489.04.69-.108L12 21.639l3.02 2.213a.758.758 0 0 0 .689.108.8.8 0 0 0 .497-.512l1.201-3.649 3.683-.07a.772.772 0 0 0 .618-.338.851.851 0 0 0 .116-.72l-1.072-3.692 2.937-2.326A.833.833 0 0 0 24 12a.832.832 0 0 0-.31-.653z"/></g></g></svg>