<svg xmlns="http://www.w3.org/2000/svg" width="32" height="32" viewBox="0 0 32 32"><g><g><g><path fill="#0081b8" d="M27.998 30.857l-2.486-.001-.097-.004-6.241.005c-1.326 0-2.404-1.117-2.404-2.49 0-.952.542-1.835 1.38-2.249l.25-.122.057-.272c.19-.89.965-1.537 1.845-1.537.198 0 .394.032.583.096l.444.149.233-.406c.627-1.09 1.728-1.74 2.948-1.74 1.865 0 3.402 1.57 3.427 3.499l.006.465.457.088c1.041.202 1.797 1.144 1.797 2.24 0 1.256-.986 2.28-2.199 2.28zm1.056-5.524c-.245-2.347-2.2-4.19-4.544-4.19-1.465 0-2.848.735-3.702 1.945a2.92 2.92 0 0 0-.505-.044c-1.326 0-2.503.901-2.895 2.179a3.673 3.673 0 0 0-1.78 3.144c0 2.003 1.591 3.633 3.547 3.633h6.156c.034 0 .068-.002.098-.005.035.003.07.005.107.005H28c1.843 0 3.342-1.535 3.342-3.422 0-1.486-.939-2.784-2.287-3.245z"/></g><g><path fill="#0081b8" d="M14.285 1.143c7.745 0 13.141 2.258 13.141 4.285S22.03 9.714 14.285 9.714c-7.746 0-13.142-2.259-13.142-4.286 0-2.027 5.396-4.285 13.142-4.285zM1.487 7.883c.171.135.356.268.557.398.041.027.088.053.132.08a9.785 9.785 0 0 0 .742.418c.208.106.427.209.658.31l.11.05c.268.113.552.221.848.326.082.03.168.057.252.085.235.08.479.156.73.23.091.026.18.053.274.079.334.092.68.18 1.041.261.05.012.104.022.154.032a25.004 25.004 0 0 0 1.342.254c.324.053.657.102 1 .147l.26.035c.426.052.866.096 1.318.134.111.009.227.016.34.024.362.026.732.048 1.11.065l.415.017c.493.017.995.028 1.515.028.519 0 1.021-.012 1.514-.028l.415-.017c.378-.017.748-.04 1.11-.065.113-.009.228-.015.34-.024a34.54 34.54 0 0 0 1.317-.134c.09-.01.173-.024.261-.035a30.803 30.803 0 0 0 1.35-.206c.341-.06.673-.125.992-.195.05-.01.104-.02.154-.032.362-.08.707-.169 1.041-.261.094-.026.183-.053.273-.08.252-.073.496-.15.731-.229.084-.028.17-.056.252-.085.296-.105.58-.214.848-.327.038-.016.073-.033.11-.05a12.211 12.211 0 0 0 .868-.42c.187-.1.364-.202.532-.307.044-.027.09-.053.132-.08.2-.13.386-.262.557-.398.043-.034.082-.068.123-.102.075-.062.153-.123.221-.186v4.69c0 .092-.023.184-.045.277a1.378 1.378 0 0 1-.148.377 1.937 1.937 0 0 1-.257.369 3.1 3.1 0 0 1-.207.224 4.701 4.701 0 0 1-.45.378c-.046.035-.096.068-.146.103-.13.089-.264.177-.412.264-.039.024-.08.046-.121.069-.17.096-.348.19-.54.284l-.076.035c-.214.101-.438.2-.677.297l-.02.008c-1.299.518-2.958.954-4.893 1.24a30.276 30.276 0 0 1-1.187.152c-.064.006-.132.01-.197.017-.346.036-.695.07-1.055.096-.165.012-.337.018-.505.028-.27.016-.539.034-.816.044a39.433 39.433 0 0 1-2.779-.002c-.278-.01-.546-.028-.817-.044-.167-.01-.34-.016-.504-.028-.36-.026-.71-.06-1.055-.095l-.198-.019a32.745 32.745 0 0 1-1.187-.152c-1.934-.285-3.594-.721-4.892-1.239a12.136 12.136 0 0 1-.698-.305l-.075-.035a9.093 9.093 0 0 1-.54-.284l-.121-.068a6.597 6.597 0 0 1-.412-.265l-.147-.103a4.705 4.705 0 0 1-.3-.243 3.096 3.096 0 0 1-.481-.517 2.13 2.13 0 0 1-.214-.38 1.4 1.4 0 0 1-.067-.208c-.021-.092-.045-.185-.045-.277v-4.69c.069.063.147.124.221.186.042.036.08.07.124.104zm12.798 15.544c-.473 0-.936-.01-1.39-.025-.278-.01-.546-.028-.817-.044-.167-.01-.34-.016-.504-.028-.36-.026-.71-.06-1.055-.096-.066-.007-.134-.011-.198-.018a32.745 32.745 0 0 1-1.187-.152c-1.934-.286-3.594-.722-4.892-1.24a12.136 12.136 0 0 1-.698-.305l-.075-.034a9.081 9.081 0 0 1-.54-.284c-.04-.023-.082-.045-.121-.069a6.597 6.597 0 0 1-.412-.264l-.147-.103a4.701 4.701 0 0 1-.3-.244c-.052-.045-.103-.09-.15-.134a3.096 3.096 0 0 1-.332-.383 2.13 2.13 0 0 1-.213-.38 1.4 1.4 0 0 1-.067-.207c-.021-.093-.045-.186-.045-.277v-4.69c.016.015.036.03.053.044.124.11.251.219.394.324 2.153 1.63 6.457 2.895 12.696 2.895 6.212 0 10.505-1.255 12.667-2.873.172-.126.328-.255.474-.387v4.974a.57.57 0 1 0 1.143 0V5.143a.56.56 0 0 0-.083-.28C27.824 2.41 22.899 0 14.285 0 5.67 0 .745 2.411.084 4.863a.555.555 0 0 0-.084.28v21.14c0 .093.024.18.066.257.65 2.761 6.108 4.388 11.319 4.779l.043.002a.57.57 0 0 0 .043-1.141C5.12 29.703 1.42 27.77 1.16 26.19a.652.652 0 0 0-.018-.075V21.31c.016.015.036.029.052.044.125.109.252.218.395.323 2.152 1.629 6.456 2.894 12.695 2.894a.57.57 0 1 0 0-1.143z"/></g></g></g></svg>