<svg xmlns="http://www.w3.org/2000/svg" width="48" height="40" viewBox="0 0 48 40"><g><g><g><g><g><path fill="#0081b8" d="M26.392 20.408h11.196v5.714H26.392zm-.8 7.347h12.796c.48 0 .8-.326.8-.816v-7.347c0-.49-.32-.816-.8-.816H25.592c-.48 0-.8.326-.8.816v7.347c0 .49.32.816.8.816z"/></g><g><path fill="#0081b8" d="M3.999 17.143h6.398c.48 0 .8-.327.8-.816 0-.49-.32-.817-.8-.817H3.999c-.48 0-.8.327-.8.817 0 .49.32.816.8.816z"/></g><g><path fill="#0081b8" d="M13.596 17.143h6.398c.48 0 .8-.327.8-.816 0-.49-.32-.817-.8-.817h-6.398c-.48 0-.8.327-.8.817 0 .49.32.816.8.816z"/></g><g><path fill="#0081b8" d="M3.999 20.408h10.397c.48 0 .8-.326.8-.816 0-.49-.32-.816-.8-.816H3.999c-.48 0-.8.326-.8.816 0 .49.32.816.8.816z"/></g><g><path fill="#0081b8" d="M19.994 18.776h-2.4c-.48 0-.8.326-.8.816 0 .49.32.816.8.816h2.4c.48 0 .8-.326.8-.816 0-.49-.32-.816-.8-.816z"/></g><g><path fill="#0081b8" d="M46.385 10.694l-2.399 26.204a1.622 1.622 0 0 1-1.76 1.47L5.359 34.122c-.8-.082-1.36-.735-1.44-1.47h36.07c1.759 0 3.198-1.47 3.198-3.265V8.735l1.84.163c.4 0 .8.245 1.04.571.24.327.4.817.32 1.225zM1.6 29.388V12.245h39.987v17.143c0 .898-.72 1.632-1.6 1.632H3.2c-.88 0-1.6-.734-1.6-1.632zM3.199 1.633h36.788c.88 0 1.6.734 1.6 1.632v.817H1.6v-.817c0-.898.72-1.632 1.599-1.632zm-1.6 4.081h39.988v4.898H1.6zm45.666 2.94c-.56-.736-1.28-1.144-2.16-1.225l-1.918-.238V3.265c0-1.796-1.44-3.265-3.2-3.265H3.2C1.439 0 0 1.47 0 3.265v26.123a3.27 3.27 0 0 0 2.292 3.13c-.04 1.651 1.184 3.085 2.826 3.237L42.067 40h.32c1.6 0 3.039-1.224 3.199-2.775l2.399-26.204c.08-.817-.16-1.715-.72-2.368z"/></g></g></g></g></g></svg>