<svg xmlns="http://www.w3.org/2000/svg" width="153" height="48" viewBox="0 0 153 48"><g><g opacity=".7"><g opacity=".7"><g opacity=".7"><g opacity=".7"><path fill="#2394bc" d="M44.605.005H57.59l-19.297 47.85H25.307L14.297 6.678c7.779 3.998 14.75 12.045 16.973 19.45l1.31 6.42L44.605 0zm84.355 28.802h.001zm.001 0h8.682l-3.739-15.516s-4.68 15.492-4.943 15.516zM153 47.942h-11.36l-1.841-9.543h-14.411l-3.548 9.505h-12.88l18.23-43.902c1.268-3.01 3.491-3.854 6.417-3.854h9.496zM99.56 19.513c7.077 3.308 10.351 7.353 10.31 12.636C109.763 41.779 101.382 48 88.501 48c-5.504-.058-10.806-1.189-13.689-2.473l1.716-10.416 1.617.738c3.992 1.73 6.622 2.468 11.517 2.468 3.534 0 7.32-1.433 7.373-4.538 0-2.023-1.616-3.5-6.364-5.776-4.648-2.22-10.858-5.92-10.758-12.588C79.967 6.38 88.5.063 100.622.063c4.748 0 8.591 1.035 11.016 1.974l-1.669 10.023-1.114-.499c-2.223-.934-5.154-1.874-9.142-1.773-4.848 0-7.019 2.023-7.071 3.997 0 2.172 2.63 3.605 6.918 5.728zM74.808 0l-7.674 47.904H54.86L62.54 0h12.269z"/></g></g></g><g opacity=".7"><path fill="#efc75e" d="M27.225 6.178C26.287 2.526 23.299.062 19.24.01H.196L0 .896c14.856 3.671 27.325 14.969 31.37 25.596z"/></g></g></g></svg>