<svg xmlns="http://www.w3.org/2000/svg" width="111" height="31" viewBox="0 0 111 31"><g><g><g><g><g><path fill="#fff" d="M0 20.332c0-6.161 4.664-10.074 10.378-10.074 4.023 0 6.56 2.044 8.016 4.351l-3.41 1.869c-.904-1.373-2.566-2.54-4.606-2.54-3.557 0-6.122 2.715-6.122 6.394 0 3.679 2.565 6.394 6.122 6.394 1.72 0 3.323-.759 4.11-1.49v-2.335h-5.13v-3.62h9.27v7.474c-1.983 2.22-4.752 3.65-8.25 3.65C4.664 30.405 0 26.463 0 20.332z"/></g><g><path fill="#fff" d="M37.08 30.054V16.01L31.6 30.054h-1.807l-5.48-14.044v14.044h-4.14V10.58h5.801l4.723 12.176 4.722-12.176h5.83v19.475z"/></g><g><path fill="#fff" d="M58.42 30.054V20.8H46.09v9.255h-1.662V10.58h1.662v8.702h12.33v-8.702h1.662v19.475z"/></g><g><path fill="#fff" d="M71.305 28.887c-4.694 0-7.696-3.65-7.696-8.555 0-4.935 3.002-8.555 7.696-8.555 4.665 0 7.696 3.62 7.696 8.555 0 4.905-3.031 8.554-7.696 8.555zm0 1.518c5.685 0 9.445-4.38 9.445-10.073 0-5.694-3.76-10.074-9.445-10.074-5.714 0-9.445 4.38-9.445 10.074 0 5.693 3.731 10.073 9.445 10.073z"/></g><g><path fill="#fff" d="M81.45 27.31l1.079-1.256c1.253 1.43 3.294 2.832 6.092 2.832 3.965 0 5.102-2.219 5.102-3.883 0-5.723-11.66-2.745-11.66-9.548 0-3.182 2.856-5.197 6.384-5.197 2.885 0 5.101 1.022 6.588 2.745l-1.108 1.226c-1.399-1.693-3.382-2.453-5.568-2.453-2.594 0-4.548 1.49-4.548 3.592 0 4.993 11.661 2.248 11.661 9.518 0 2.511-1.662 5.519-6.909 5.519-3.206 0-5.626-1.314-7.113-3.095z"/></g><g><path fill="#fff" d="M102.585 30.054V12.098H96.23v-1.519h14.4v1.519h-6.354v17.957h-1.69z"/></g></g><g><g><path fill="#f0f0f0" d="M67.646 5.533c-.909 0-1.435-.757-1.435-1.753 0-.995.526-1.76 1.435-1.76.578 0 1.113.348 1.351.748v2.033c-.238.392-.773.732-1.35.732zm1.351.298h.45V.156h-.45v2.229a1.728 1.728 0 0 0-1.427-.766c-1.087 0-1.826.86-1.826 2.161 0 1.32.739 2.153 1.826 2.153.612 0 1.138-.332 1.427-.757z"/></g><g><path fill="#f0f0f0" d="M73.773 5.023c-.29.374-.748.561-1.24.562-.672 0-1.122-.434-1.122-1.013 0-.587.45-1.021 1.122-1.021.492 0 .95.187 1.24.57zm0 .808h.44V2.938c0-.919-.662-1.319-1.494-1.319-.68 0-1.155.23-1.58.69l.247.306c.373-.425.773-.604 1.29-.604.604 0 1.097.331 1.097.944v.834c-.357-.4-.824-.587-1.394-.587-.713 0-1.435.467-1.435 1.361 0 .885.73 1.37 1.435 1.37.57 0 1.029-.187 1.394-.587z"/></g><g/><g><path fill="#f0f0f0" d="M81.216 5.023c-.289.374-.748.561-1.24.562-.672 0-1.122-.434-1.122-1.013 0-.587.45-1.021 1.122-1.021.492 0 .95.187 1.24.57zm0 .808h.44V2.938c0-.919-.662-1.319-1.494-1.319-.68 0-1.155.23-1.58.69l.247.306c.373-.425.773-.604 1.29-.604.604 0 1.097.331 1.097.944v.834c-.357-.4-.824-.587-1.394-.587-.713 0-1.435.467-1.435 1.361 0 .885.73 1.37 1.435 1.37.57 0 1.029-.187 1.394-.587v.485z"/></g><g><path fill="#f0f0f0" d="M85.686 3.772c0-1.2.782-2.153 1.988-2.153.714 0 1.121.28 1.453.698l-.306.272a1.298 1.298 0 0 0-1.122-.57c-.96 0-1.546.766-1.546 1.753 0 .987.587 1.76 1.546 1.76.45 0 .824-.17 1.122-.577l.306.272c-.332.425-.74.706-1.453.706-1.206 0-1.988-.961-1.988-2.161z"/></g><g><path fill="#f0f0f0" d="M93.68 3.568H90.7c.034-.715.518-1.566 1.486-1.566 1.028 0 1.487.868 1.496 1.566zm-1.41 2.365c.68 0 1.198-.238 1.606-.664l-.23-.29a1.8 1.8 0 0 1-1.342.571c-.968 0-1.563-.74-1.606-1.634h3.432v-.119c0-1.191-.687-2.178-1.936-2.178-1.139 0-1.971.961-1.971 2.153 0 1.268.85 2.16 2.047 2.16z"/></g><g><path fill="#f0f0f0" d="M98.379 5.83V3.05c0-.792-.4-1.03-.994-1.03-.527 0-1.07.332-1.334.706v3.106h-.442v-4.11h.442v.621c.298-.357.884-.723 1.478-.723.833 0 1.292.409 1.292 1.336V5.83z"/></g><g/><g><path fill="#f0f0f0" d="M106.443 3.568h-2.982c.034-.715.518-1.566 1.486-1.566 1.028 0 1.487.868 1.496 1.566zm-1.41 2.365c.679 0 1.197-.238 1.605-.664l-.23-.29a1.8 1.8 0 0 1-1.342.571c-.968 0-1.563-.74-1.606-1.634h3.433v-.119c0-1.191-.688-2.178-1.937-2.178-1.139 0-1.971.961-1.971 2.153 0 1.268.85 2.16 2.047 2.16z"/></g><g><path fill="#f0f0f0" d="M108.372 5.83V1.722h.442v.707c.348-.46.815-.792 1.385-.792v.485c-.077-.017-.136-.017-.221-.017-.417 0-.977.375-1.164.732V5.83z"/></g></g></g></g></g></svg>