<svg xmlns="http://www.w3.org/2000/svg" width="308" height="386" viewBox="0 0 308 386"><defs><mask id="u2vyb" width="2" height="2" x="-1" y="-1"><path fill="#fff" d="M19 6h270v350H19z"/><path d="M286 6L22 40a3 3 0 0 0-3 3v265a3 3 0 0 0 3 3l264 45a3 3 0 0 0 3-3V9a3 3 0 0 0-3-3z"/></mask><filter id="u2vya" width="338" height="430" x="-15" y="-28" filterUnits="userSpaceOnUse"><feOffset dy="12" in="SourceGraphic" result="FeOffset1043Out"/><feGaussianBlur in="FeOffset1043Out" result="FeGaussianBlur1044Out" stdDeviation="9.6 9.6"/></filter></defs><g><g><g filter="url(#u2vya)"><path fill="none" d="M286 6L22 40a3 3 0 0 0-3 3v265a3 3 0 0 0 3 3l264 45a3 3 0 0 0 3-3V9a3 3 0 0 0-3-3z" mask="url(&quot;#u2vyb&quot;)"/><path fill="#7c7c7c" fill-opacity=".16" d="M286 6L22 40a3 3 0 0 0-3 3v265a3 3 0 0 0 3 3l264 45a3 3 0 0 0 3-3V9a3 3 0 0 0-3-3z"/></g><path fill="#fff" d="M286 6L22 40a3 3 0 0 0-3 3v265a3 3 0 0 0 3 3l264 45a3 3 0 0 0 3-3V9a3 3 0 0 0-3-3z"/></g></g></svg>