<svg xmlns="http://www.w3.org/2000/svg" width="1921" height="172" viewBox="0 0 1921 172"><g><g clip-path="url(#clip-694315e3-72bd-4c0a-a409-8c96f362fe26)"><g opacity=".5"><path fill="#80d9f6" d="M.25 24.818S282.184 1.237 504.762 2.096C706.21.72 974.888 31.162 1323.434 34.09c343.155 2.884 596.816-9.273 596.816-9.273v146.984H.25z"/></g><g opacity=".5"><path fill="#6cc0e2" d="M.25 45.523s155.55 18.1 545 18.192c172.136.04 573.313-60.293 841.809-63.162 317.152-2.877 533.191 55.105 533.191 55.105v116.144H.25z"/></g><g opacity=".5"><path fill="#80d9f6" d="M.25 72.95s252.422 24.734 475 25.19c201.45-.73 702.625-39.095 1016.941-38.527 248.575 2.022 428.059 54.684 428.059 54.684v57.505H.25z"/></g></g></g></svg>