<svg xmlns="http://www.w3.org/2000/svg" width="1170" height="200" viewBox="0 0 1170 200"><g><g><path fill="#0b65a7" d="M501 10.957v5.783l643.32 16.82s14.234-.233 15.906 1.852c1.671 2.084-1.164 8.194-1.164 8.194l-33.888 97.024c-1.423 3.285-2.537 4.832-7.145 7.563-4.607 2.73-12.946 2.757-12.946 2.757L278.66 185.898v5.45l836.637-36.265s7.71-.78 9.877-1.889c2.167-1.11 2.937-1.46 4.792-6.442 9.313-25.001 38.69-103.976 39.424-107.347.874-4.014.75-4.91 0-6.848-.75-1.937-8.101-2.673-8.101-2.673z"/></g><g opacity=".5"><path fill="#97d5ef" d="M2.789 40.205C.465 41.636 0 46.328 0 46.328l46 131.28s1.417 4.32 4.23 5.59c2.814 1.271 10.376 1.342 10.376 1.342L1032.63 186s6.39-.076 10.313-1.632c3.923-1.556 5.379-4.59 5.379-4.59l106.922-165.535s2.101-3.96 0-6.022c-2.102-2.06-8.408-2.221-8.408-2.221L12.833 38.403s-7.72.37-10.044 1.802z"/></g><g><path fill="#0b65a7" d="M501.11 16.894v-5.951L120.45.032s-7.02-.353-10.884 1.298C105.7 2.982 104.79 7.99 104.79 7.99L67.422 191.087s-.26 4.532 3.463 6.914c3.722 2.383 9.59 1.972 9.59 1.972l198.195-8.513V186l-184.457 7.842s-6.807.124-10.003-1.303c-3.196-1.428-4.716-6.427-4.716-6.427L113.76 18.503s2.574-9.336 5.712-11.278c3.137-1.942 14.319-1.159 14.319-1.159z"/></g></g></svg>