<svg xmlns="http://www.w3.org/2000/svg" width="314" height="420" viewBox="0 0 314 420"><defs><mask id="np84b" width="2" height="2" x="-1" y="-1"><path fill="#fff" d="M25 35h270v350H25z"/><path d="M28 35l264 34a3 3 0 0 1 3 3v265a3 3 0 0 1-3 3L28 385a3 3 0 0 1-3-3V38a3 3 0 0 1 3-3z"/></mask><filter id="np84a" width="338" height="430" x="-9" y="1" filterUnits="userSpaceOnUse"><feOffset dy="12" in="SourceGraphic" result="FeOffset1291Out"/><feGaussianBlur in="FeOffset1291Out" result="FeGaussianBlur1292Out" stdDeviation="9.6 9.6"/></filter></defs><g><g><path fill="#0b65a7" d="M269.152 46.893C246.039 42.376 15.81 3.357 15.81 3.357S6.897 2.114 4.733 2.993c-2.165.88-1.67 3.113-2.159 8.542-.489 5.43 0 23.42 0 23.42l.583 375.717-2.394-.602L0 13.76S.217 6.44.566 3.748C.916 1.057 3.498-.135 7.521.012c4.023.147 229.394 36.286 263.929 43.651 13.128 7.405 7.183 103.748 7.345 151.2-2.313 81.094 2.788 147.371-3.165 172.843-5.442 2.478-257.411 51.236-265.98 52.153-1.73.117-5.617.557-7.424-1.097C.42 417.107.763 410.07.763 410.07l2.394.602s-.254 5.517 1.779 6.609c2.011 1.08 9.514-.4 10.15-.537 4.753-1.002 244.74-48.129 256.71-51.983 6.24-2.7 2.183-86.073 2.692-168.512.482-78.123 1.923-145.207-5.336-149.356z"/></g><g><path fill="#c5e7f6" d="M10.888 12L268 51.587v308.865L10.89 412c-1.596 0-2.89-1.535-2.89-3.429V15.43C8 13.535 9.293 12 10.89 12z"/></g><g><g filter="url(#np84a)"><path fill="none" d="M28 35l264 34a3 3 0 0 1 3 3v265a3 3 0 0 1-3 3L28 385a3 3 0 0 1-3-3V38a3 3 0 0 1 3-3z" mask="url(&quot;#np84b&quot;)"/><path fill="#7c7c7c" fill-opacity=".16" d="M28 35l264 34a3 3 0 0 1 3 3v265a3 3 0 0 1-3 3L28 385a3 3 0 0 1-3-3V38a3 3 0 0 1 3-3z"/></g><path fill="#fff" d="M28 35l264 34a3 3 0 0 1 3 3v265a3 3 0 0 1-3 3L28 385a3 3 0 0 1-3-3V38a3 3 0 0 1 3-3z"/></g></g></svg>