<svg xmlns="http://www.w3.org/2000/svg" width="314" height="420" viewBox="0 0 314 420"><defs><mask id="qrjjb" width="2" height="2" x="-1" y="-1"><path fill="#fff" d="M25 35h270v350H25z"/><path d="M292 35L28 69a3 3 0 0 0-3 3v265a3 3 0 0 0 3 3l264 45a3 3 0 0 0 3-3V38a3 3 0 0 0-3-3z"/></mask><filter id="qrjja" width="338" height="430" x="-9" y="1" filterUnits="userSpaceOnUse"><feOffset dy="12" in="SourceGraphic" result="FeOffset1321Out"/><feGaussianBlur in="FeOffset1321Out" result="FeGaussianBlur1322Out" stdDeviation="9.6 9.6"/></filter></defs><g><g><path fill="#0b65a7" d="M10.847 46.893C33.96 42.376 264.19 3.357 264.19 3.357s8.913-1.243 11.078-.364c2.164.88 1.67 3.113 2.158 8.542.49 5.43 0 23.42 0 23.42l-.583 375.717 2.394-.602L280 13.76s-.218-7.32-.567-10.012c-.35-2.691-2.932-3.883-6.955-3.736C268.455.159 43.085 36.298 8.55 43.663c-13.13 7.405-7.184 103.748-7.346 151.2 2.313 81.094-2.788 147.371 3.165 172.843 5.442 2.478 257.412 51.236 265.98 52.153 1.73.117 5.618.557 7.424-1.097 1.806-1.655 1.463-8.692 1.463-8.692l-2.394.602s.254 5.517-1.779 6.609c-2.01 1.08-9.513-.4-10.149-.537-4.753-1.002-244.741-48.129-256.711-51.983-6.24-2.7-2.182-86.073-2.691-168.512-.482-78.123-1.924-145.207 5.335-149.356z"/></g><g><path fill="#c5e7f6" d="M269.111 12L12 51.587v308.865L269.111 412c1.596 0 2.889-1.535 2.889-3.429V15.43c0-1.894-1.293-3.429-2.889-3.429z"/></g><g><g filter="url(#qrjja)"><path fill="none" d="M292 35L28 69a3 3 0 0 0-3 3v265a3 3 0 0 0 3 3l264 45a3 3 0 0 0 3-3V38a3 3 0 0 0-3-3z" mask="url(&quot;#qrjjb&quot;)"/><path fill="#7c7c7c" fill-opacity=".16" d="M292 35L28 69a3 3 0 0 0-3 3v265a3 3 0 0 0 3 3l264 45a3 3 0 0 0 3-3V38a3 3 0 0 0-3-3z"/></g><path fill="#fff" d="M292 35L28 69a3 3 0 0 0-3 3v265a3 3 0 0 0 3 3l264 45a3 3 0 0 0 3-3V38a3 3 0 0 0-3-3z"/></g></g></svg>