<svg xmlns="http://www.w3.org/2000/svg" width="128" height="100" viewBox="0 0 128 100"><g><g><g><path fill="#fff" d="M.048 4c0-2 2-4 4-4h119.903c2 0 4 2 4 4v86.357c0 2-2 4-4 4H4.048c-2 0-4-2-4-4z"/></g><g><path fill="#eaf5fa" d="M116.75 73.508v-52.66a9.648 9.648 0 0 1-9.647-9.647H20.897a9.648 9.648 0 0 1-9.648 9.648v52.66a9.648 9.648 0 0 1 9.648 9.648h86.206c0-5.329 4.32-9.649 9.648-9.649z"/></g><g><path fill="#c6e7ff" d="M95.065 100l-8.48-6.46-8.884 6.46V77.387h17.364z"/></g><g><path fill="#0081b8" d="M98.443 73.289c0 6.735-5.461 12.198-12.2 12.198-6.737 0-12.198-5.463-12.198-12.198 0-6.738 5.46-12.2 12.199-12.2 6.738 0 12.199 5.462 12.199 12.2z"/></g><g opacity=".3"><path fill="#5b5b5f" d="M98.443 73.289c0-6.738-5.461-12.2-12.2-12.2V93.686l.203-.147 8.48 6.46V81.855a12.155 12.155 0 0 0 3.517-8.565z"/></g><g opacity=".4"><path fill="#0081b8" d="M47.317 30.905v-2.78h33.366v2.78z"/></g><g opacity=".4"><path fill="#0081b8" d="M32.588 43.008v-2.78h62.823v2.78z"/></g><g opacity=".4"><path fill="#0081b8" d="M32.588 55.111v-2.78h62.823v2.78z"/></g></g></g></svg>