<svg xmlns="http://www.w3.org/2000/svg" width="1132" height="424" viewBox="0 0 1132 424"><g><g><path fill="#0b65a7" d="M258.613 42.223c35.133.253 298.566-37.404 318.51-38.191 19.942-.787 256.425 38.816 283.674 38.586 27.248-.23 255.34-39.248 255.34-39.248s8.943-1.247 11.115-.365c2.171.883 1.675 3.126 2.165 8.578.49 5.451 0 23.516 0 23.516l-.585 377.266 2.402-.605.766-397.943s-.218-7.351-.568-10.053c-.351-2.703-2.942-3.9-6.978-3.752-4.036.147-219.633 40.482-263.657 39.11C816.772 37.753 591.222.7 577.122.747 570.34.768 427.407 20.37 427.407 20.37S295.906 38.683 258.613 39.343C238.57 39.696 160.8 27.6 160.8 27.6S15.872 4.217 13.581 4.097C9.66 3.892 6.859 3.64 4.68 5.31s-2.242 5.784-2.517 8.051L0 412.431c.192 2.186 1.633 4.46 4.259 5.942 2.626 1.48 8.226 1.595 12.332 1.3 4.105-.296 17.267-2.975 17.267-2.975s235.502-46.829 244.26-46.867c8.76-.038 281.899 54.233 294.522 54.066 12.622-.167 273.722-50.683 284.181-50.936 10.459-.254 256.9 47.707 265.498 48.628 1.735.118 5.635.56 7.447-1.101 1.812-1.661 1.468-8.728 1.468-8.728l-2.402.605s.255 5.54-1.784 6.636c-2.018 1.085-9.545-.402-10.183-.54-4.769-1.006-248.603-49.335-261.044-49.015-13.672.352-269.907 51.966-283.505 51.941-13.597-.025-280.583-52.705-294.197-53.016-13.615-.31-257.99 48.662-261.528 48.843-3.54.18-6.809.123-10.006-1.304s-4.717-4.374-4.717-6.427c0-2.052 1.223-382.706 2.069-390.635.846-7.929.81-10.056 2.918-11.635 2.108-1.578 15.315.225 15.315.225S223.48 41.97 258.613 42.223z"/></g><g><path fill="#c5e7f6" d="M11.376 12.371l257.181 39.59v308.753l-257.18 51.657c-1.597 0-2.89-1.535-2.89-3.428V15.8c0-1.894 1.293-3.429 2.89-3.429z"/></g><g><path fill="#c5e7f6" d="M574.284 13.248l288.459 38.878.975 309.227-289.37 51.895z"/></g><g><path fill="#c5e7f6" d="M575.15 13.252L267.758 52.096l.6 309.287 306.928 51.87z"/></g><g><path fill="#c5e7f6" d="M1120.1 12.371L862.917 51.96v308.864l257.181 51.548c1.596 0 2.89-1.535 2.89-3.428V15.8c0-1.894-1.294-3.429-2.89-3.429z"/></g></g></svg>